M48
; DRILL file {KiCad (6.0.11)} date Wed Feb 22 21:13:09 2023
; FORMAT={-:-/ absolute / metric / decimal}
; #@! TF.CreationDate,2023-02-22T21:13:09+09:00
; #@! TF.GenerationSoftware,Kicad,Pcbnew,(6.0.11)
; #@! TF.FileFunction,Plated,1,2,PTH
FMAT,2
METRIC
; #@! TA.AperFunction,Plated,PTH,ViaDrill
T1C0.400
; #@! TA.AperFunction,Plated,PTH,ComponentDrill
T2C0.800
; #@! TA.AperFunction,Plated,PTH,ComponentDrill
T3C1.000
; #@! TA.AperFunction,Plated,PTH,ComponentDrill
T4C1.220
; #@! TA.AperFunction,Plated,PTH,ComponentDrill
T5C1.520
%
G90
G05
T1
X126.402Y-36.652
X126.402Y-63.036
X126.402Y-89.42
X131.228Y-49.352
X131.228Y-75.736
X131.228Y-102.12
X133.768Y-28.778
X133.768Y-49.352
X133.768Y-55.162
X133.768Y-75.736
X133.768Y-81.546
X133.768Y-102.12
X136.308Y-43.764
X136.308Y-70.148
X136.308Y-96.532
X137.324Y-38.176
X137.324Y-64.56
X137.324Y-90.944
X140.372Y-34.112
X140.372Y-60.496
X140.372Y-86.88
X144.182Y-47.066
X144.182Y-73.45
X144.182Y-99.834
X145.198Y-38.43
X145.198Y-64.814
X145.198Y-91.198
X146.214Y-31.826
X146.214Y-58.21
X146.214Y-84.594
T2
X154.003Y-33.604
X154.003Y-59.988
X154.003Y-86.372
X156.503Y-33.604
X156.503Y-59.988
X156.503Y-86.372
T3
X129.004Y-32.842
X129.004Y-35.382
X129.004Y-37.922
X129.004Y-40.462
X129.004Y-43.002
X129.004Y-45.542
X129.004Y-59.226
X129.004Y-61.766
X129.004Y-64.306
X129.004Y-66.846
X129.004Y-69.386
X129.004Y-71.926
X129.004Y-85.61
X129.004Y-88.15
X129.004Y-90.69
X129.004Y-93.23
X129.004Y-95.77
X129.004Y-98.31
X131.544Y-32.842
X131.544Y-35.382
X131.544Y-37.922
X131.544Y-40.462
X131.544Y-43.002
X131.544Y-45.542
X131.544Y-59.226
X131.544Y-61.766
X131.544Y-64.306
X131.544Y-66.846
X131.544Y-69.386
X131.544Y-71.926
X131.544Y-85.61
X131.544Y-88.15
X131.544Y-90.69
X131.544Y-93.23
X131.544Y-95.77
X131.544Y-98.31
T4
X148.734Y-30.546
X148.734Y-33.086
X148.734Y-35.626
X148.734Y-38.166
X148.734Y-40.706
X148.734Y-43.246
X148.734Y-45.786
X148.734Y-48.326
X148.734Y-56.93
X148.734Y-59.47
X148.734Y-62.01
X148.734Y-64.55
X148.734Y-67.09
X148.734Y-69.63
X148.734Y-72.17
X148.734Y-74.71
X148.734Y-83.314
X148.734Y-85.854
X148.734Y-88.394
X148.734Y-90.934
X148.734Y-93.474
X148.734Y-96.014
X148.734Y-98.554
X148.734Y-101.094
X161.434Y-30.546
X161.434Y-33.086
X161.434Y-35.626
X161.434Y-38.166
X161.434Y-40.706
X161.434Y-43.246
X161.434Y-45.786
X161.434Y-48.326
X161.434Y-56.93
X161.434Y-59.47
X161.434Y-62.01
X161.434Y-64.55
X161.434Y-67.09
X161.434Y-69.63
X161.434Y-72.17
X161.434Y-74.71
X161.434Y-83.314
X161.434Y-85.854
X161.434Y-88.394
X161.434Y-90.934
X161.434Y-93.474
X161.434Y-96.014
X161.434Y-98.554
X161.434Y-101.094
T5
X137.832Y-30.81
X137.832Y-57.194
X137.832Y-83.578
X142.912Y-30.81
X142.912Y-57.194
X142.912Y-83.578
X168.058Y-31.572
X168.058Y-36.652
X168.058Y-41.732
X168.058Y-46.812
X168.058Y-57.956
X168.058Y-63.036
X168.058Y-68.116
X168.058Y-73.196
X168.058Y-84.34
X168.058Y-89.42
X168.058Y-94.5
X168.058Y-99.58
T2
G00X144.876Y-44.104
M15
G01X144.876Y-42.504
M16
G05
G00X144.876Y-70.488
M15
G01X144.876Y-68.888
M16
G05
G00X144.876Y-96.872
M15
G01X144.876Y-95.272
M16
G05
T3
G00X139.177Y-40.304
M15
G01X141.177Y-40.304
M16
G05
G00X139.177Y-46.304
M15
G01X141.177Y-46.304
M16
G05
G00X139.177Y-66.688
M15
G01X141.177Y-66.688
M16
G05
G00X139.177Y-72.688
M15
G01X141.177Y-72.688
M16
G05
G00X139.177Y-93.072
M15
G01X141.177Y-93.072
M16
G05
G00X139.177Y-99.072
M15
G01X141.177Y-99.072
M16
G05
T0
M30
