%TF.GenerationSoftware,KiCad,Pcbnew,(6.0.11)*%
%TF.CreationDate,2023-02-22T21:13:02+09:00*%
%TF.ProjectId,panel,70616e65-6c2e-46b6-9963-61645f706362,rev?*%
%TF.SameCoordinates,Original*%
%TF.FileFunction,Legend,Bot*%
%TF.FilePolarity,Positive*%
%FSLAX46Y46*%
G04 Gerber Fmt 4.6, Leading zero omitted, Abs format (unit mm)*
G04 Created by KiCad (PCBNEW (6.0.11)) date 2023-02-22 21:13:02*
%MOMM*%
%LPD*%
G01*
G04 APERTURE LIST*
%ADD10C,0.150000*%
G04 APERTURE END LIST*
D10*
X153746476Y-96063714D02*
X153032190Y-96063714D01*
X153460761Y-95635142D02*
X153746476Y-96920857D01*
X153127428Y-96492285D02*
X153841714Y-96492285D01*
X153413142Y-96920857D02*
X153127428Y-95635142D01*
X152746476Y-96682761D02*
X152603619Y-96730380D01*
X152365523Y-96730380D01*
X152270285Y-96682761D01*
X152222666Y-96635142D01*
X152175047Y-96539904D01*
X152175047Y-96444666D01*
X152222666Y-96349428D01*
X152270285Y-96301809D01*
X152365523Y-96254190D01*
X152556000Y-96206571D01*
X152651238Y-96158952D01*
X152698857Y-96111333D01*
X152746476Y-96016095D01*
X152746476Y-95920857D01*
X152698857Y-95825619D01*
X152651238Y-95778000D01*
X152556000Y-95730380D01*
X152317904Y-95730380D01*
X152175047Y-95778000D01*
X151270285Y-96730380D02*
X151746476Y-96730380D01*
X151746476Y-95730380D01*
X150936952Y-96730380D02*
X150936952Y-95730380D01*
X150556000Y-95730380D01*
X150460761Y-95778000D01*
X150413142Y-95825619D01*
X150365523Y-95920857D01*
X150365523Y-96063714D01*
X150413142Y-96158952D01*
X150460761Y-96206571D01*
X150556000Y-96254190D01*
X150936952Y-96254190D01*
X153746476Y-43295714D02*
X153032190Y-43295714D01*
X153460761Y-42867142D02*
X153746476Y-44152857D01*
X153127428Y-43724285D02*
X153841714Y-43724285D01*
X153413142Y-44152857D02*
X153127428Y-42867142D01*
X152746476Y-43914761D02*
X152603619Y-43962380D01*
X152365523Y-43962380D01*
X152270285Y-43914761D01*
X152222666Y-43867142D01*
X152175047Y-43771904D01*
X152175047Y-43676666D01*
X152222666Y-43581428D01*
X152270285Y-43533809D01*
X152365523Y-43486190D01*
X152556000Y-43438571D01*
X152651238Y-43390952D01*
X152698857Y-43343333D01*
X152746476Y-43248095D01*
X152746476Y-43152857D01*
X152698857Y-43057619D01*
X152651238Y-43010000D01*
X152556000Y-42962380D01*
X152317904Y-42962380D01*
X152175047Y-43010000D01*
X151270285Y-43962380D02*
X151746476Y-43962380D01*
X151746476Y-42962380D01*
X150936952Y-43962380D02*
X150936952Y-42962380D01*
X150556000Y-42962380D01*
X150460761Y-43010000D01*
X150413142Y-43057619D01*
X150365523Y-43152857D01*
X150365523Y-43295714D01*
X150413142Y-43390952D01*
X150460761Y-43438571D01*
X150556000Y-43486190D01*
X150936952Y-43486190D01*
X153746476Y-69679714D02*
X153032190Y-69679714D01*
X153460761Y-69251142D02*
X153746476Y-70536857D01*
X153127428Y-70108285D02*
X153841714Y-70108285D01*
X153413142Y-70536857D02*
X153127428Y-69251142D01*
X152746476Y-70298761D02*
X152603619Y-70346380D01*
X152365523Y-70346380D01*
X152270285Y-70298761D01*
X152222666Y-70251142D01*
X152175047Y-70155904D01*
X152175047Y-70060666D01*
X152222666Y-69965428D01*
X152270285Y-69917809D01*
X152365523Y-69870190D01*
X152556000Y-69822571D01*
X152651238Y-69774952D01*
X152698857Y-69727333D01*
X152746476Y-69632095D01*
X152746476Y-69536857D01*
X152698857Y-69441619D01*
X152651238Y-69394000D01*
X152556000Y-69346380D01*
X152317904Y-69346380D01*
X152175047Y-69394000D01*
X151270285Y-70346380D02*
X151746476Y-70346380D01*
X151746476Y-69346380D01*
X150936952Y-70346380D02*
X150936952Y-69346380D01*
X150556000Y-69346380D01*
X150460761Y-69394000D01*
X150413142Y-69441619D01*
X150365523Y-69536857D01*
X150365523Y-69679714D01*
X150413142Y-69774952D01*
X150460761Y-69822571D01*
X150556000Y-69870190D01*
X150936952Y-69870190D01*
X165660857Y-40406380D02*
X166232285Y-40406380D01*
X165946571Y-40406380D02*
X165946571Y-39406380D01*
X166041809Y-39549238D01*
X166137047Y-39644476D01*
X166232285Y-39692095D01*
X165279904Y-40120666D02*
X164803714Y-40120666D01*
X165375142Y-40406380D02*
X165041809Y-39406380D01*
X164708476Y-40406380D01*
X165660857Y-93174380D02*
X166232285Y-93174380D01*
X165946571Y-93174380D02*
X165946571Y-92174380D01*
X166041809Y-92317238D01*
X166137047Y-92412476D01*
X166232285Y-92460095D01*
X165279904Y-92888666D02*
X164803714Y-92888666D01*
X165375142Y-93174380D02*
X165041809Y-92174380D01*
X164708476Y-93174380D01*
X165660857Y-66790380D02*
X166232285Y-66790380D01*
X165946571Y-66790380D02*
X165946571Y-65790380D01*
X166041809Y-65933238D01*
X166137047Y-66028476D01*
X166232285Y-66076095D01*
X165279904Y-66504666D02*
X164803714Y-66504666D01*
X165375142Y-66790380D02*
X165041809Y-65790380D01*
X164708476Y-66790380D01*
X145039047Y-81490380D02*
X145039047Y-80490380D01*
X144705714Y-81204666D01*
X144372380Y-80490380D01*
X144372380Y-81490380D01*
X144039047Y-80490380D02*
X143705714Y-81490380D01*
X143372380Y-80490380D01*
X142610476Y-81442761D02*
X142705714Y-81490380D01*
X142896190Y-81490380D01*
X142991428Y-81442761D01*
X143039047Y-81395142D01*
X143086666Y-81299904D01*
X143086666Y-81014190D01*
X143039047Y-80918952D01*
X142991428Y-80871333D01*
X142896190Y-80823714D01*
X142705714Y-80823714D01*
X142610476Y-80871333D01*
X141753333Y-81442761D02*
X141848571Y-81490380D01*
X142039047Y-81490380D01*
X142134285Y-81442761D01*
X142181904Y-81395142D01*
X142229523Y-81299904D01*
X142229523Y-81014190D01*
X142181904Y-80918952D01*
X142134285Y-80871333D01*
X142039047Y-80823714D01*
X141848571Y-80823714D01*
X141753333Y-80871333D01*
X145039047Y-55106380D02*
X145039047Y-54106380D01*
X144705714Y-54820666D01*
X144372380Y-54106380D01*
X144372380Y-55106380D01*
X144039047Y-54106380D02*
X143705714Y-55106380D01*
X143372380Y-54106380D01*
X142610476Y-55058761D02*
X142705714Y-55106380D01*
X142896190Y-55106380D01*
X142991428Y-55058761D01*
X143039047Y-55011142D01*
X143086666Y-54915904D01*
X143086666Y-54630190D01*
X143039047Y-54534952D01*
X142991428Y-54487333D01*
X142896190Y-54439714D01*
X142705714Y-54439714D01*
X142610476Y-54487333D01*
X141753333Y-55058761D02*
X141848571Y-55106380D01*
X142039047Y-55106380D01*
X142134285Y-55058761D01*
X142181904Y-55011142D01*
X142229523Y-54915904D01*
X142229523Y-54630190D01*
X142181904Y-54534952D01*
X142134285Y-54487333D01*
X142039047Y-54439714D01*
X141848571Y-54439714D01*
X141753333Y-54487333D01*
X145039047Y-28722380D02*
X145039047Y-27722380D01*
X144705714Y-28436666D01*
X144372380Y-27722380D01*
X144372380Y-28722380D01*
X144039047Y-27722380D02*
X143705714Y-28722380D01*
X143372380Y-27722380D01*
X142610476Y-28674761D02*
X142705714Y-28722380D01*
X142896190Y-28722380D01*
X142991428Y-28674761D01*
X143039047Y-28627142D01*
X143086666Y-28531904D01*
X143086666Y-28246190D01*
X143039047Y-28150952D01*
X142991428Y-28103333D01*
X142896190Y-28055714D01*
X142705714Y-28055714D01*
X142610476Y-28103333D01*
X141753333Y-28674761D02*
X141848571Y-28722380D01*
X142039047Y-28722380D01*
X142134285Y-28674761D01*
X142181904Y-28627142D01*
X142229523Y-28531904D01*
X142229523Y-28246190D01*
X142181904Y-28150952D01*
X142134285Y-28103333D01*
X142039047Y-28055714D01*
X141848571Y-28055714D01*
X141753333Y-28103333D01*
X152833714Y-36088380D02*
X152833714Y-35088380D01*
X152500380Y-35802666D01*
X152167047Y-35088380D01*
X152167047Y-36088380D01*
X151738476Y-36040761D02*
X151595619Y-36088380D01*
X151357523Y-36088380D01*
X151262285Y-36040761D01*
X151214666Y-35993142D01*
X151167047Y-35897904D01*
X151167047Y-35802666D01*
X151214666Y-35707428D01*
X151262285Y-35659809D01*
X151357523Y-35612190D01*
X151548000Y-35564571D01*
X151643238Y-35516952D01*
X151690857Y-35469333D01*
X151738476Y-35374095D01*
X151738476Y-35278857D01*
X151690857Y-35183619D01*
X151643238Y-35136000D01*
X151548000Y-35088380D01*
X151309904Y-35088380D01*
X151167047Y-35136000D01*
X150786095Y-35183619D02*
X150738476Y-35136000D01*
X150643238Y-35088380D01*
X150405142Y-35088380D01*
X150309904Y-35136000D01*
X150262285Y-35183619D01*
X150214666Y-35278857D01*
X150214666Y-35374095D01*
X150262285Y-35516952D01*
X150833714Y-36088380D01*
X150214666Y-36088380D01*
X152833714Y-62472380D02*
X152833714Y-61472380D01*
X152500380Y-62186666D01*
X152167047Y-61472380D01*
X152167047Y-62472380D01*
X151738476Y-62424761D02*
X151595619Y-62472380D01*
X151357523Y-62472380D01*
X151262285Y-62424761D01*
X151214666Y-62377142D01*
X151167047Y-62281904D01*
X151167047Y-62186666D01*
X151214666Y-62091428D01*
X151262285Y-62043809D01*
X151357523Y-61996190D01*
X151548000Y-61948571D01*
X151643238Y-61900952D01*
X151690857Y-61853333D01*
X151738476Y-61758095D01*
X151738476Y-61662857D01*
X151690857Y-61567619D01*
X151643238Y-61520000D01*
X151548000Y-61472380D01*
X151309904Y-61472380D01*
X151167047Y-61520000D01*
X150786095Y-61567619D02*
X150738476Y-61520000D01*
X150643238Y-61472380D01*
X150405142Y-61472380D01*
X150309904Y-61520000D01*
X150262285Y-61567619D01*
X150214666Y-61662857D01*
X150214666Y-61758095D01*
X150262285Y-61900952D01*
X150833714Y-62472380D01*
X150214666Y-62472380D01*
X152833714Y-88856380D02*
X152833714Y-87856380D01*
X152500380Y-88570666D01*
X152167047Y-87856380D01*
X152167047Y-88856380D01*
X151738476Y-88808761D02*
X151595619Y-88856380D01*
X151357523Y-88856380D01*
X151262285Y-88808761D01*
X151214666Y-88761142D01*
X151167047Y-88665904D01*
X151167047Y-88570666D01*
X151214666Y-88475428D01*
X151262285Y-88427809D01*
X151357523Y-88380190D01*
X151548000Y-88332571D01*
X151643238Y-88284952D01*
X151690857Y-88237333D01*
X151738476Y-88142095D01*
X151738476Y-88046857D01*
X151690857Y-87951619D01*
X151643238Y-87904000D01*
X151548000Y-87856380D01*
X151309904Y-87856380D01*
X151167047Y-87904000D01*
X150786095Y-87951619D02*
X150738476Y-87904000D01*
X150643238Y-87856380D01*
X150405142Y-87856380D01*
X150309904Y-87904000D01*
X150262285Y-87951619D01*
X150214666Y-88046857D01*
X150214666Y-88142095D01*
X150262285Y-88284952D01*
X150833714Y-88856380D01*
X150214666Y-88856380D01*
X152833714Y-30341714D02*
X152119428Y-30341714D01*
X152548000Y-29913142D02*
X152833714Y-31198857D01*
X152214666Y-30770285D02*
X152928952Y-30770285D01*
X152500380Y-31198857D02*
X152214666Y-29913142D01*
X151786095Y-30484571D02*
X151452761Y-30484571D01*
X151309904Y-31008380D02*
X151786095Y-31008380D01*
X151786095Y-30008380D01*
X151309904Y-30008380D01*
X150881333Y-31008380D02*
X150881333Y-30008380D01*
X150309904Y-31008380D01*
X150309904Y-30008380D01*
X152833714Y-83109714D02*
X152119428Y-83109714D01*
X152548000Y-82681142D02*
X152833714Y-83966857D01*
X152214666Y-83538285D02*
X152928952Y-83538285D01*
X152500380Y-83966857D02*
X152214666Y-82681142D01*
X151786095Y-83252571D02*
X151452761Y-83252571D01*
X151309904Y-83776380D02*
X151786095Y-83776380D01*
X151786095Y-82776380D01*
X151309904Y-82776380D01*
X150881333Y-83776380D02*
X150881333Y-82776380D01*
X150309904Y-83776380D01*
X150309904Y-82776380D01*
X152833714Y-56725714D02*
X152119428Y-56725714D01*
X152548000Y-56297142D02*
X152833714Y-57582857D01*
X152214666Y-57154285D02*
X152928952Y-57154285D01*
X152500380Y-57582857D02*
X152214666Y-56297142D01*
X151786095Y-56868571D02*
X151452761Y-56868571D01*
X151309904Y-57392380D02*
X151786095Y-57392380D01*
X151786095Y-56392380D01*
X151309904Y-56392380D01*
X150881333Y-57392380D02*
X150881333Y-56392380D01*
X150309904Y-57392380D01*
X150309904Y-56392380D01*
X153421047Y-99222761D02*
X153278190Y-99270380D01*
X153040095Y-99270380D01*
X152944857Y-99222761D01*
X152897238Y-99175142D01*
X152849619Y-99079904D01*
X152849619Y-98984666D01*
X152897238Y-98889428D01*
X152944857Y-98841809D01*
X153040095Y-98794190D01*
X153230571Y-98746571D01*
X153325809Y-98698952D01*
X153373428Y-98651333D01*
X153421047Y-98556095D01*
X153421047Y-98460857D01*
X153373428Y-98365619D01*
X153325809Y-98318000D01*
X153230571Y-98270380D01*
X152992476Y-98270380D01*
X152849619Y-98318000D01*
X152563904Y-98270380D02*
X151992476Y-98270380D01*
X152278190Y-99270380D02*
X152278190Y-98270380D01*
X151659142Y-98746571D02*
X151325809Y-98746571D01*
X151182952Y-99270380D02*
X151659142Y-99270380D01*
X151659142Y-98270380D01*
X151182952Y-98270380D01*
X150754380Y-99270380D02*
X150754380Y-98270380D01*
X150373428Y-98270380D01*
X150278190Y-98318000D01*
X150230571Y-98365619D01*
X150182952Y-98460857D01*
X150182952Y-98603714D01*
X150230571Y-98698952D01*
X150278190Y-98746571D01*
X150373428Y-98794190D01*
X150754380Y-98794190D01*
X153421047Y-72838761D02*
X153278190Y-72886380D01*
X153040095Y-72886380D01*
X152944857Y-72838761D01*
X152897238Y-72791142D01*
X152849619Y-72695904D01*
X152849619Y-72600666D01*
X152897238Y-72505428D01*
X152944857Y-72457809D01*
X153040095Y-72410190D01*
X153230571Y-72362571D01*
X153325809Y-72314952D01*
X153373428Y-72267333D01*
X153421047Y-72172095D01*
X153421047Y-72076857D01*
X153373428Y-71981619D01*
X153325809Y-71934000D01*
X153230571Y-71886380D01*
X152992476Y-71886380D01*
X152849619Y-71934000D01*
X152563904Y-71886380D02*
X151992476Y-71886380D01*
X152278190Y-72886380D02*
X152278190Y-71886380D01*
X151659142Y-72362571D02*
X151325809Y-72362571D01*
X151182952Y-72886380D02*
X151659142Y-72886380D01*
X151659142Y-71886380D01*
X151182952Y-71886380D01*
X150754380Y-72886380D02*
X150754380Y-71886380D01*
X150373428Y-71886380D01*
X150278190Y-71934000D01*
X150230571Y-71981619D01*
X150182952Y-72076857D01*
X150182952Y-72219714D01*
X150230571Y-72314952D01*
X150278190Y-72362571D01*
X150373428Y-72410190D01*
X150754380Y-72410190D01*
X153421047Y-46454761D02*
X153278190Y-46502380D01*
X153040095Y-46502380D01*
X152944857Y-46454761D01*
X152897238Y-46407142D01*
X152849619Y-46311904D01*
X152849619Y-46216666D01*
X152897238Y-46121428D01*
X152944857Y-46073809D01*
X153040095Y-46026190D01*
X153230571Y-45978571D01*
X153325809Y-45930952D01*
X153373428Y-45883333D01*
X153421047Y-45788095D01*
X153421047Y-45692857D01*
X153373428Y-45597619D01*
X153325809Y-45550000D01*
X153230571Y-45502380D01*
X152992476Y-45502380D01*
X152849619Y-45550000D01*
X152563904Y-45502380D02*
X151992476Y-45502380D01*
X152278190Y-46502380D02*
X152278190Y-45502380D01*
X151659142Y-45978571D02*
X151325809Y-45978571D01*
X151182952Y-46502380D02*
X151659142Y-46502380D01*
X151659142Y-45502380D01*
X151182952Y-45502380D01*
X150754380Y-46502380D02*
X150754380Y-45502380D01*
X150373428Y-45502380D01*
X150278190Y-45550000D01*
X150230571Y-45597619D01*
X150182952Y-45692857D01*
X150182952Y-45835714D01*
X150230571Y-45930952D01*
X150278190Y-45978571D01*
X150373428Y-46026190D01*
X150754380Y-46026190D01*
X152833714Y-38628380D02*
X152833714Y-37628380D01*
X152500380Y-38342666D01*
X152167047Y-37628380D01*
X152167047Y-38628380D01*
X151738476Y-38580761D02*
X151595619Y-38628380D01*
X151357523Y-38628380D01*
X151262285Y-38580761D01*
X151214666Y-38533142D01*
X151167047Y-38437904D01*
X151167047Y-38342666D01*
X151214666Y-38247428D01*
X151262285Y-38199809D01*
X151357523Y-38152190D01*
X151548000Y-38104571D01*
X151643238Y-38056952D01*
X151690857Y-38009333D01*
X151738476Y-37914095D01*
X151738476Y-37818857D01*
X151690857Y-37723619D01*
X151643238Y-37676000D01*
X151548000Y-37628380D01*
X151309904Y-37628380D01*
X151167047Y-37676000D01*
X150833714Y-37628380D02*
X150214666Y-37628380D01*
X150548000Y-38009333D01*
X150405142Y-38009333D01*
X150309904Y-38056952D01*
X150262285Y-38104571D01*
X150214666Y-38199809D01*
X150214666Y-38437904D01*
X150262285Y-38533142D01*
X150309904Y-38580761D01*
X150405142Y-38628380D01*
X150690857Y-38628380D01*
X150786095Y-38580761D01*
X150833714Y-38533142D01*
X152833714Y-91396380D02*
X152833714Y-90396380D01*
X152500380Y-91110666D01*
X152167047Y-90396380D01*
X152167047Y-91396380D01*
X151738476Y-91348761D02*
X151595619Y-91396380D01*
X151357523Y-91396380D01*
X151262285Y-91348761D01*
X151214666Y-91301142D01*
X151167047Y-91205904D01*
X151167047Y-91110666D01*
X151214666Y-91015428D01*
X151262285Y-90967809D01*
X151357523Y-90920190D01*
X151548000Y-90872571D01*
X151643238Y-90824952D01*
X151690857Y-90777333D01*
X151738476Y-90682095D01*
X151738476Y-90586857D01*
X151690857Y-90491619D01*
X151643238Y-90444000D01*
X151548000Y-90396380D01*
X151309904Y-90396380D01*
X151167047Y-90444000D01*
X150833714Y-90396380D02*
X150214666Y-90396380D01*
X150548000Y-90777333D01*
X150405142Y-90777333D01*
X150309904Y-90824952D01*
X150262285Y-90872571D01*
X150214666Y-90967809D01*
X150214666Y-91205904D01*
X150262285Y-91301142D01*
X150309904Y-91348761D01*
X150405142Y-91396380D01*
X150690857Y-91396380D01*
X150786095Y-91348761D01*
X150833714Y-91301142D01*
X152833714Y-65012380D02*
X152833714Y-64012380D01*
X152500380Y-64726666D01*
X152167047Y-64012380D01*
X152167047Y-65012380D01*
X151738476Y-64964761D02*
X151595619Y-65012380D01*
X151357523Y-65012380D01*
X151262285Y-64964761D01*
X151214666Y-64917142D01*
X151167047Y-64821904D01*
X151167047Y-64726666D01*
X151214666Y-64631428D01*
X151262285Y-64583809D01*
X151357523Y-64536190D01*
X151548000Y-64488571D01*
X151643238Y-64440952D01*
X151690857Y-64393333D01*
X151738476Y-64298095D01*
X151738476Y-64202857D01*
X151690857Y-64107619D01*
X151643238Y-64060000D01*
X151548000Y-64012380D01*
X151309904Y-64012380D01*
X151167047Y-64060000D01*
X150833714Y-64012380D02*
X150214666Y-64012380D01*
X150548000Y-64393333D01*
X150405142Y-64393333D01*
X150309904Y-64440952D01*
X150262285Y-64488571D01*
X150214666Y-64583809D01*
X150214666Y-64821904D01*
X150262285Y-64917142D01*
X150309904Y-64964761D01*
X150405142Y-65012380D01*
X150690857Y-65012380D01*
X150786095Y-64964761D01*
X150833714Y-64917142D01*
X166232285Y-87189619D02*
X166184666Y-87142000D01*
X166089428Y-87094380D01*
X165851333Y-87094380D01*
X165756095Y-87142000D01*
X165708476Y-87189619D01*
X165660857Y-87284857D01*
X165660857Y-87380095D01*
X165708476Y-87522952D01*
X166279904Y-88094380D01*
X165660857Y-88094380D01*
X165279904Y-87808666D02*
X164803714Y-87808666D01*
X165375142Y-88094380D02*
X165041809Y-87094380D01*
X164708476Y-88094380D01*
X166232285Y-34421619D02*
X166184666Y-34374000D01*
X166089428Y-34326380D01*
X165851333Y-34326380D01*
X165756095Y-34374000D01*
X165708476Y-34421619D01*
X165660857Y-34516857D01*
X165660857Y-34612095D01*
X165708476Y-34754952D01*
X166279904Y-35326380D01*
X165660857Y-35326380D01*
X165279904Y-35040666D02*
X164803714Y-35040666D01*
X165375142Y-35326380D02*
X165041809Y-34326380D01*
X164708476Y-35326380D01*
X166232285Y-60805619D02*
X166184666Y-60758000D01*
X166089428Y-60710380D01*
X165851333Y-60710380D01*
X165756095Y-60758000D01*
X165708476Y-60805619D01*
X165660857Y-60900857D01*
X165660857Y-60996095D01*
X165708476Y-61138952D01*
X166279904Y-61710380D01*
X165660857Y-61710380D01*
X165279904Y-61424666D02*
X164803714Y-61424666D01*
X165375142Y-61710380D02*
X165041809Y-60710380D01*
X164708476Y-61710380D01*
X152294000Y-48788380D02*
X152294000Y-47788380D01*
X152055904Y-47788380D01*
X151913047Y-47836000D01*
X151817809Y-47931238D01*
X151770190Y-48026476D01*
X151722571Y-48216952D01*
X151722571Y-48359809D01*
X151770190Y-48550285D01*
X151817809Y-48645523D01*
X151913047Y-48740761D01*
X152055904Y-48788380D01*
X152294000Y-48788380D01*
X151294000Y-48788380D02*
X151294000Y-47788380D01*
X150246380Y-48788380D02*
X150579714Y-48312190D01*
X150817809Y-48788380D02*
X150817809Y-47788380D01*
X150436857Y-47788380D01*
X150341619Y-47836000D01*
X150294000Y-47883619D01*
X150246380Y-47978857D01*
X150246380Y-48121714D01*
X150294000Y-48216952D01*
X150341619Y-48264571D01*
X150436857Y-48312190D01*
X150817809Y-48312190D01*
X152294000Y-75172380D02*
X152294000Y-74172380D01*
X152055904Y-74172380D01*
X151913047Y-74220000D01*
X151817809Y-74315238D01*
X151770190Y-74410476D01*
X151722571Y-74600952D01*
X151722571Y-74743809D01*
X151770190Y-74934285D01*
X151817809Y-75029523D01*
X151913047Y-75124761D01*
X152055904Y-75172380D01*
X152294000Y-75172380D01*
X151294000Y-75172380D02*
X151294000Y-74172380D01*
X150246380Y-75172380D02*
X150579714Y-74696190D01*
X150817809Y-75172380D02*
X150817809Y-74172380D01*
X150436857Y-74172380D01*
X150341619Y-74220000D01*
X150294000Y-74267619D01*
X150246380Y-74362857D01*
X150246380Y-74505714D01*
X150294000Y-74600952D01*
X150341619Y-74648571D01*
X150436857Y-74696190D01*
X150817809Y-74696190D01*
X152294000Y-101556380D02*
X152294000Y-100556380D01*
X152055904Y-100556380D01*
X151913047Y-100604000D01*
X151817809Y-100699238D01*
X151770190Y-100794476D01*
X151722571Y-100984952D01*
X151722571Y-101127809D01*
X151770190Y-101318285D01*
X151817809Y-101413523D01*
X151913047Y-101508761D01*
X152055904Y-101556380D01*
X152294000Y-101556380D01*
X151294000Y-101556380D02*
X151294000Y-100556380D01*
X150246380Y-101556380D02*
X150579714Y-101080190D01*
X150817809Y-101556380D02*
X150817809Y-100556380D01*
X150436857Y-100556380D01*
X150341619Y-100604000D01*
X150294000Y-100651619D01*
X150246380Y-100746857D01*
X150246380Y-100889714D01*
X150294000Y-100984952D01*
X150341619Y-101032571D01*
X150436857Y-101080190D01*
X150817809Y-101080190D01*
X146991714Y-33802380D02*
X146991714Y-32802380D01*
X146658380Y-33516666D01*
X146325047Y-32802380D01*
X146325047Y-33802380D01*
X145896476Y-33754761D02*
X145753619Y-33802380D01*
X145515523Y-33802380D01*
X145420285Y-33754761D01*
X145372666Y-33707142D01*
X145325047Y-33611904D01*
X145325047Y-33516666D01*
X145372666Y-33421428D01*
X145420285Y-33373809D01*
X145515523Y-33326190D01*
X145706000Y-33278571D01*
X145801238Y-33230952D01*
X145848857Y-33183333D01*
X145896476Y-33088095D01*
X145896476Y-32992857D01*
X145848857Y-32897619D01*
X145801238Y-32850000D01*
X145706000Y-32802380D01*
X145467904Y-32802380D01*
X145325047Y-32850000D01*
X144372666Y-33802380D02*
X144944095Y-33802380D01*
X144658380Y-33802380D02*
X144658380Y-32802380D01*
X144753619Y-32945238D01*
X144848857Y-33040476D01*
X144944095Y-33088095D01*
X146991714Y-60186380D02*
X146991714Y-59186380D01*
X146658380Y-59900666D01*
X146325047Y-59186380D01*
X146325047Y-60186380D01*
X145896476Y-60138761D02*
X145753619Y-60186380D01*
X145515523Y-60186380D01*
X145420285Y-60138761D01*
X145372666Y-60091142D01*
X145325047Y-59995904D01*
X145325047Y-59900666D01*
X145372666Y-59805428D01*
X145420285Y-59757809D01*
X145515523Y-59710190D01*
X145706000Y-59662571D01*
X145801238Y-59614952D01*
X145848857Y-59567333D01*
X145896476Y-59472095D01*
X145896476Y-59376857D01*
X145848857Y-59281619D01*
X145801238Y-59234000D01*
X145706000Y-59186380D01*
X145467904Y-59186380D01*
X145325047Y-59234000D01*
X144372666Y-60186380D02*
X144944095Y-60186380D01*
X144658380Y-60186380D02*
X144658380Y-59186380D01*
X144753619Y-59329238D01*
X144848857Y-59424476D01*
X144944095Y-59472095D01*
X146991714Y-86570380D02*
X146991714Y-85570380D01*
X146658380Y-86284666D01*
X146325047Y-85570380D01*
X146325047Y-86570380D01*
X145896476Y-86522761D02*
X145753619Y-86570380D01*
X145515523Y-86570380D01*
X145420285Y-86522761D01*
X145372666Y-86475142D01*
X145325047Y-86379904D01*
X145325047Y-86284666D01*
X145372666Y-86189428D01*
X145420285Y-86141809D01*
X145515523Y-86094190D01*
X145706000Y-86046571D01*
X145801238Y-85998952D01*
X145848857Y-85951333D01*
X145896476Y-85856095D01*
X145896476Y-85760857D01*
X145848857Y-85665619D01*
X145801238Y-85618000D01*
X145706000Y-85570380D01*
X145467904Y-85570380D01*
X145325047Y-85618000D01*
X144372666Y-86570380D02*
X144944095Y-86570380D01*
X144658380Y-86570380D02*
X144658380Y-85570380D01*
X144753619Y-85713238D01*
X144848857Y-85808476D01*
X144944095Y-85856095D01*
X166303714Y-29595619D02*
X166256095Y-29548000D01*
X166160857Y-29500380D01*
X165922761Y-29500380D01*
X165827523Y-29548000D01*
X165779904Y-29595619D01*
X165732285Y-29690857D01*
X165732285Y-29786095D01*
X165779904Y-29928952D01*
X166351333Y-30500380D01*
X165732285Y-30500380D01*
X164970380Y-29976571D02*
X164827523Y-30024190D01*
X164779904Y-30071809D01*
X164732285Y-30167047D01*
X164732285Y-30309904D01*
X164779904Y-30405142D01*
X164827523Y-30452761D01*
X164922761Y-30500380D01*
X165303714Y-30500380D01*
X165303714Y-29500380D01*
X164970380Y-29500380D01*
X164875142Y-29548000D01*
X164827523Y-29595619D01*
X164779904Y-29690857D01*
X164779904Y-29786095D01*
X164827523Y-29881333D01*
X164875142Y-29928952D01*
X164970380Y-29976571D01*
X165303714Y-29976571D01*
X166303714Y-82363619D02*
X166256095Y-82316000D01*
X166160857Y-82268380D01*
X165922761Y-82268380D01*
X165827523Y-82316000D01*
X165779904Y-82363619D01*
X165732285Y-82458857D01*
X165732285Y-82554095D01*
X165779904Y-82696952D01*
X166351333Y-83268380D01*
X165732285Y-83268380D01*
X164970380Y-82744571D02*
X164827523Y-82792190D01*
X164779904Y-82839809D01*
X164732285Y-82935047D01*
X164732285Y-83077904D01*
X164779904Y-83173142D01*
X164827523Y-83220761D01*
X164922761Y-83268380D01*
X165303714Y-83268380D01*
X165303714Y-82268380D01*
X164970380Y-82268380D01*
X164875142Y-82316000D01*
X164827523Y-82363619D01*
X164779904Y-82458857D01*
X164779904Y-82554095D01*
X164827523Y-82649333D01*
X164875142Y-82696952D01*
X164970380Y-82744571D01*
X165303714Y-82744571D01*
X166303714Y-55979619D02*
X166256095Y-55932000D01*
X166160857Y-55884380D01*
X165922761Y-55884380D01*
X165827523Y-55932000D01*
X165779904Y-55979619D01*
X165732285Y-56074857D01*
X165732285Y-56170095D01*
X165779904Y-56312952D01*
X166351333Y-56884380D01*
X165732285Y-56884380D01*
X164970380Y-56360571D02*
X164827523Y-56408190D01*
X164779904Y-56455809D01*
X164732285Y-56551047D01*
X164732285Y-56693904D01*
X164779904Y-56789142D01*
X164827523Y-56836761D01*
X164922761Y-56884380D01*
X165303714Y-56884380D01*
X165303714Y-55884380D01*
X164970380Y-55884380D01*
X164875142Y-55932000D01*
X164827523Y-55979619D01*
X164779904Y-56074857D01*
X164779904Y-56170095D01*
X164827523Y-56265333D01*
X164875142Y-56312952D01*
X164970380Y-56360571D01*
X165303714Y-56360571D01*
X165732285Y-44724380D02*
X166303714Y-44724380D01*
X166018000Y-44724380D02*
X166018000Y-43724380D01*
X166113238Y-43867238D01*
X166208476Y-43962476D01*
X166303714Y-44010095D01*
X164970380Y-44200571D02*
X164827523Y-44248190D01*
X164779904Y-44295809D01*
X164732285Y-44391047D01*
X164732285Y-44533904D01*
X164779904Y-44629142D01*
X164827523Y-44676761D01*
X164922761Y-44724380D01*
X165303714Y-44724380D01*
X165303714Y-43724380D01*
X164970380Y-43724380D01*
X164875142Y-43772000D01*
X164827523Y-43819619D01*
X164779904Y-43914857D01*
X164779904Y-44010095D01*
X164827523Y-44105333D01*
X164875142Y-44152952D01*
X164970380Y-44200571D01*
X165303714Y-44200571D01*
X165732285Y-71108380D02*
X166303714Y-71108380D01*
X166018000Y-71108380D02*
X166018000Y-70108380D01*
X166113238Y-70251238D01*
X166208476Y-70346476D01*
X166303714Y-70394095D01*
X164970380Y-70584571D02*
X164827523Y-70632190D01*
X164779904Y-70679809D01*
X164732285Y-70775047D01*
X164732285Y-70917904D01*
X164779904Y-71013142D01*
X164827523Y-71060761D01*
X164922761Y-71108380D01*
X165303714Y-71108380D01*
X165303714Y-70108380D01*
X164970380Y-70108380D01*
X164875142Y-70156000D01*
X164827523Y-70203619D01*
X164779904Y-70298857D01*
X164779904Y-70394095D01*
X164827523Y-70489333D01*
X164875142Y-70536952D01*
X164970380Y-70584571D01*
X165303714Y-70584571D01*
X165732285Y-97492380D02*
X166303714Y-97492380D01*
X166018000Y-97492380D02*
X166018000Y-96492380D01*
X166113238Y-96635238D01*
X166208476Y-96730476D01*
X166303714Y-96778095D01*
X164970380Y-96968571D02*
X164827523Y-97016190D01*
X164779904Y-97063809D01*
X164732285Y-97159047D01*
X164732285Y-97301904D01*
X164779904Y-97397142D01*
X164827523Y-97444761D01*
X164922761Y-97492380D01*
X165303714Y-97492380D01*
X165303714Y-96492380D01*
X164970380Y-96492380D01*
X164875142Y-96540000D01*
X164827523Y-96587619D01*
X164779904Y-96682857D01*
X164779904Y-96778095D01*
X164827523Y-96873333D01*
X164875142Y-96920952D01*
X164970380Y-96968571D01*
X165303714Y-96968571D01*
X153722666Y-66885714D02*
X153008380Y-66885714D01*
X153436952Y-66457142D02*
X153722666Y-67742857D01*
X153103619Y-67314285D02*
X153817904Y-67314285D01*
X153389333Y-67742857D02*
X153103619Y-66457142D01*
X152103619Y-67552380D02*
X152436952Y-67076190D01*
X152675047Y-67552380D02*
X152675047Y-66552380D01*
X152294095Y-66552380D01*
X152198857Y-66600000D01*
X152151238Y-66647619D01*
X152103619Y-66742857D01*
X152103619Y-66885714D01*
X152151238Y-66980952D01*
X152198857Y-67028571D01*
X152294095Y-67076190D01*
X152675047Y-67076190D01*
X151722666Y-67504761D02*
X151579809Y-67552380D01*
X151341714Y-67552380D01*
X151246476Y-67504761D01*
X151198857Y-67457142D01*
X151151238Y-67361904D01*
X151151238Y-67266666D01*
X151198857Y-67171428D01*
X151246476Y-67123809D01*
X151341714Y-67076190D01*
X151532190Y-67028571D01*
X151627428Y-66980952D01*
X151675047Y-66933333D01*
X151722666Y-66838095D01*
X151722666Y-66742857D01*
X151675047Y-66647619D01*
X151627428Y-66600000D01*
X151532190Y-66552380D01*
X151294095Y-66552380D01*
X151151238Y-66600000D01*
X150865523Y-66552380D02*
X150294095Y-66552380D01*
X150579809Y-67552380D02*
X150579809Y-66552380D01*
X153722666Y-93269714D02*
X153008380Y-93269714D01*
X153436952Y-92841142D02*
X153722666Y-94126857D01*
X153103619Y-93698285D02*
X153817904Y-93698285D01*
X153389333Y-94126857D02*
X153103619Y-92841142D01*
X152103619Y-93936380D02*
X152436952Y-93460190D01*
X152675047Y-93936380D02*
X152675047Y-92936380D01*
X152294095Y-92936380D01*
X152198857Y-92984000D01*
X152151238Y-93031619D01*
X152103619Y-93126857D01*
X152103619Y-93269714D01*
X152151238Y-93364952D01*
X152198857Y-93412571D01*
X152294095Y-93460190D01*
X152675047Y-93460190D01*
X151722666Y-93888761D02*
X151579809Y-93936380D01*
X151341714Y-93936380D01*
X151246476Y-93888761D01*
X151198857Y-93841142D01*
X151151238Y-93745904D01*
X151151238Y-93650666D01*
X151198857Y-93555428D01*
X151246476Y-93507809D01*
X151341714Y-93460190D01*
X151532190Y-93412571D01*
X151627428Y-93364952D01*
X151675047Y-93317333D01*
X151722666Y-93222095D01*
X151722666Y-93126857D01*
X151675047Y-93031619D01*
X151627428Y-92984000D01*
X151532190Y-92936380D01*
X151294095Y-92936380D01*
X151151238Y-92984000D01*
X150865523Y-92936380D02*
X150294095Y-92936380D01*
X150579809Y-93936380D02*
X150579809Y-92936380D01*
X153722666Y-40501714D02*
X153008380Y-40501714D01*
X153436952Y-40073142D02*
X153722666Y-41358857D01*
X153103619Y-40930285D02*
X153817904Y-40930285D01*
X153389333Y-41358857D02*
X153103619Y-40073142D01*
X152103619Y-41168380D02*
X152436952Y-40692190D01*
X152675047Y-41168380D02*
X152675047Y-40168380D01*
X152294095Y-40168380D01*
X152198857Y-40216000D01*
X152151238Y-40263619D01*
X152103619Y-40358857D01*
X152103619Y-40501714D01*
X152151238Y-40596952D01*
X152198857Y-40644571D01*
X152294095Y-40692190D01*
X152675047Y-40692190D01*
X151722666Y-41120761D02*
X151579809Y-41168380D01*
X151341714Y-41168380D01*
X151246476Y-41120761D01*
X151198857Y-41073142D01*
X151151238Y-40977904D01*
X151151238Y-40882666D01*
X151198857Y-40787428D01*
X151246476Y-40739809D01*
X151341714Y-40692190D01*
X151532190Y-40644571D01*
X151627428Y-40596952D01*
X151675047Y-40549333D01*
X151722666Y-40454095D01*
X151722666Y-40358857D01*
X151675047Y-40263619D01*
X151627428Y-40216000D01*
X151532190Y-40168380D01*
X151294095Y-40168380D01*
X151151238Y-40216000D01*
X150865523Y-40168380D02*
X150294095Y-40168380D01*
X150579809Y-41168380D02*
X150579809Y-40168380D01*
X160025047Y-31008380D02*
X160025047Y-30008380D01*
X159691714Y-30722666D01*
X159358380Y-30008380D01*
X159358380Y-31008380D01*
X159025047Y-30008380D02*
X158691714Y-31008380D01*
X158358380Y-30008380D01*
X157596476Y-30960761D02*
X157691714Y-31008380D01*
X157882190Y-31008380D01*
X157977428Y-30960761D01*
X158025047Y-30913142D01*
X158072666Y-30817904D01*
X158072666Y-30532190D01*
X158025047Y-30436952D01*
X157977428Y-30389333D01*
X157882190Y-30341714D01*
X157691714Y-30341714D01*
X157596476Y-30389333D01*
X156739333Y-30960761D02*
X156834571Y-31008380D01*
X157025047Y-31008380D01*
X157120285Y-30960761D01*
X157167904Y-30913142D01*
X157215523Y-30817904D01*
X157215523Y-30532190D01*
X157167904Y-30436952D01*
X157120285Y-30389333D01*
X157025047Y-30341714D01*
X156834571Y-30341714D01*
X156739333Y-30389333D01*
X160025047Y-83776380D02*
X160025047Y-82776380D01*
X159691714Y-83490666D01*
X159358380Y-82776380D01*
X159358380Y-83776380D01*
X159025047Y-82776380D02*
X158691714Y-83776380D01*
X158358380Y-82776380D01*
X157596476Y-83728761D02*
X157691714Y-83776380D01*
X157882190Y-83776380D01*
X157977428Y-83728761D01*
X158025047Y-83681142D01*
X158072666Y-83585904D01*
X158072666Y-83300190D01*
X158025047Y-83204952D01*
X157977428Y-83157333D01*
X157882190Y-83109714D01*
X157691714Y-83109714D01*
X157596476Y-83157333D01*
X156739333Y-83728761D02*
X156834571Y-83776380D01*
X157025047Y-83776380D01*
X157120285Y-83728761D01*
X157167904Y-83681142D01*
X157215523Y-83585904D01*
X157215523Y-83300190D01*
X157167904Y-83204952D01*
X157120285Y-83157333D01*
X157025047Y-83109714D01*
X156834571Y-83109714D01*
X156739333Y-83157333D01*
X160025047Y-57392380D02*
X160025047Y-56392380D01*
X159691714Y-57106666D01*
X159358380Y-56392380D01*
X159358380Y-57392380D01*
X159025047Y-56392380D02*
X158691714Y-57392380D01*
X158358380Y-56392380D01*
X157596476Y-57344761D02*
X157691714Y-57392380D01*
X157882190Y-57392380D01*
X157977428Y-57344761D01*
X158025047Y-57297142D01*
X158072666Y-57201904D01*
X158072666Y-56916190D01*
X158025047Y-56820952D01*
X157977428Y-56773333D01*
X157882190Y-56725714D01*
X157691714Y-56725714D01*
X157596476Y-56773333D01*
X156739333Y-57344761D02*
X156834571Y-57392380D01*
X157025047Y-57392380D01*
X157120285Y-57344761D01*
X157167904Y-57297142D01*
X157215523Y-57201904D01*
X157215523Y-56916190D01*
X157167904Y-56820952D01*
X157120285Y-56773333D01*
X157025047Y-56725714D01*
X156834571Y-56725714D01*
X156739333Y-56773333D01*
X159850476Y-45248380D02*
X159517142Y-46248380D01*
X159183809Y-45248380D01*
X158421904Y-46200761D02*
X158517142Y-46248380D01*
X158707619Y-46248380D01*
X158802857Y-46200761D01*
X158850476Y-46153142D01*
X158898095Y-46057904D01*
X158898095Y-45772190D01*
X158850476Y-45676952D01*
X158802857Y-45629333D01*
X158707619Y-45581714D01*
X158517142Y-45581714D01*
X158421904Y-45629333D01*
X157564761Y-46200761D02*
X157660000Y-46248380D01*
X157850476Y-46248380D01*
X157945714Y-46200761D01*
X157993333Y-46153142D01*
X158040952Y-46057904D01*
X158040952Y-45772190D01*
X157993333Y-45676952D01*
X157945714Y-45629333D01*
X157850476Y-45581714D01*
X157660000Y-45581714D01*
X157564761Y-45629333D01*
X159850476Y-71632380D02*
X159517142Y-72632380D01*
X159183809Y-71632380D01*
X158421904Y-72584761D02*
X158517142Y-72632380D01*
X158707619Y-72632380D01*
X158802857Y-72584761D01*
X158850476Y-72537142D01*
X158898095Y-72441904D01*
X158898095Y-72156190D01*
X158850476Y-72060952D01*
X158802857Y-72013333D01*
X158707619Y-71965714D01*
X158517142Y-71965714D01*
X158421904Y-72013333D01*
X157564761Y-72584761D02*
X157660000Y-72632380D01*
X157850476Y-72632380D01*
X157945714Y-72584761D01*
X157993333Y-72537142D01*
X158040952Y-72441904D01*
X158040952Y-72156190D01*
X157993333Y-72060952D01*
X157945714Y-72013333D01*
X157850476Y-71965714D01*
X157660000Y-71965714D01*
X157564761Y-72013333D01*
X159850476Y-98016380D02*
X159517142Y-99016380D01*
X159183809Y-98016380D01*
X158421904Y-98968761D02*
X158517142Y-99016380D01*
X158707619Y-99016380D01*
X158802857Y-98968761D01*
X158850476Y-98921142D01*
X158898095Y-98825904D01*
X158898095Y-98540190D01*
X158850476Y-98444952D01*
X158802857Y-98397333D01*
X158707619Y-98349714D01*
X158517142Y-98349714D01*
X158421904Y-98397333D01*
X157564761Y-98968761D02*
X157660000Y-99016380D01*
X157850476Y-99016380D01*
X157945714Y-98968761D01*
X157993333Y-98921142D01*
X158040952Y-98825904D01*
X158040952Y-98540190D01*
X157993333Y-98444952D01*
X157945714Y-98397333D01*
X157850476Y-98349714D01*
X157660000Y-98349714D01*
X157564761Y-98397333D01*
X137831904Y-27770000D02*
X137927142Y-27722380D01*
X138070000Y-27722380D01*
X138212857Y-27770000D01*
X138308095Y-27865238D01*
X138355714Y-27960476D01*
X138403333Y-28150952D01*
X138403333Y-28293809D01*
X138355714Y-28484285D01*
X138308095Y-28579523D01*
X138212857Y-28674761D01*
X138070000Y-28722380D01*
X137974761Y-28722380D01*
X137831904Y-28674761D01*
X137784285Y-28627142D01*
X137784285Y-28293809D01*
X137974761Y-28293809D01*
X137355714Y-28722380D02*
X137355714Y-27722380D01*
X136784285Y-28722380D01*
X136784285Y-27722380D01*
X136308095Y-28722380D02*
X136308095Y-27722380D01*
X136070000Y-27722380D01*
X135927142Y-27770000D01*
X135831904Y-27865238D01*
X135784285Y-27960476D01*
X135736666Y-28150952D01*
X135736666Y-28293809D01*
X135784285Y-28484285D01*
X135831904Y-28579523D01*
X135927142Y-28674761D01*
X136070000Y-28722380D01*
X136308095Y-28722380D01*
X137831904Y-80538000D02*
X137927142Y-80490380D01*
X138070000Y-80490380D01*
X138212857Y-80538000D01*
X138308095Y-80633238D01*
X138355714Y-80728476D01*
X138403333Y-80918952D01*
X138403333Y-81061809D01*
X138355714Y-81252285D01*
X138308095Y-81347523D01*
X138212857Y-81442761D01*
X138070000Y-81490380D01*
X137974761Y-81490380D01*
X137831904Y-81442761D01*
X137784285Y-81395142D01*
X137784285Y-81061809D01*
X137974761Y-81061809D01*
X137355714Y-81490380D02*
X137355714Y-80490380D01*
X136784285Y-81490380D01*
X136784285Y-80490380D01*
X136308095Y-81490380D02*
X136308095Y-80490380D01*
X136070000Y-80490380D01*
X135927142Y-80538000D01*
X135831904Y-80633238D01*
X135784285Y-80728476D01*
X135736666Y-80918952D01*
X135736666Y-81061809D01*
X135784285Y-81252285D01*
X135831904Y-81347523D01*
X135927142Y-81442761D01*
X136070000Y-81490380D01*
X136308095Y-81490380D01*
X137831904Y-54154000D02*
X137927142Y-54106380D01*
X138070000Y-54106380D01*
X138212857Y-54154000D01*
X138308095Y-54249238D01*
X138355714Y-54344476D01*
X138403333Y-54534952D01*
X138403333Y-54677809D01*
X138355714Y-54868285D01*
X138308095Y-54963523D01*
X138212857Y-55058761D01*
X138070000Y-55106380D01*
X137974761Y-55106380D01*
X137831904Y-55058761D01*
X137784285Y-55011142D01*
X137784285Y-54677809D01*
X137974761Y-54677809D01*
X137355714Y-55106380D02*
X137355714Y-54106380D01*
X136784285Y-55106380D01*
X136784285Y-54106380D01*
X136308095Y-55106380D02*
X136308095Y-54106380D01*
X136070000Y-54106380D01*
X135927142Y-54154000D01*
X135831904Y-54249238D01*
X135784285Y-54344476D01*
X135736666Y-54534952D01*
X135736666Y-54677809D01*
X135784285Y-54868285D01*
X135831904Y-54963523D01*
X135927142Y-55058761D01*
X136070000Y-55106380D01*
X136308095Y-55106380D01*
M02*
