%TF.GenerationSoftware,KiCad,Pcbnew,(6.0.11)*%
%TF.CreationDate,2023-02-22T21:13:02+09:00*%
%TF.ProjectId,panel,70616e65-6c2e-46b6-9963-61645f706362,rev?*%
%TF.SameCoordinates,Original*%
%TF.FileFunction,Soldermask,Top*%
%TF.FilePolarity,Negative*%
%FSLAX46Y46*%
G04 Gerber Fmt 4.6, Leading zero omitted, Abs format (unit mm)*
G04 Created by KiCad (PCBNEW (6.0.11)) date 2023-02-22 21:13:02*
%MOMM*%
%LPD*%
G01*
G04 APERTURE LIST*
G04 Aperture macros list*
%AMRoundRect*
0 Rectangle with rounded corners*
0 $1 Rounding radius*
0 $2 $3 $4 $5 $6 $7 $8 $9 X,Y pos of 4 corners*
0 Add a 4 corners polygon primitive as box body*
4,1,4,$2,$3,$4,$5,$6,$7,$8,$9,$2,$3,0*
0 Add four circle primitives for the rounded corners*
1,1,$1+$1,$2,$3*
1,1,$1+$1,$4,$5*
1,1,$1+$1,$6,$7*
1,1,$1+$1,$8,$9*
0 Add four rect primitives between the rounded corners*
20,1,$1+$1,$2,$3,$4,$5,0*
20,1,$1+$1,$4,$5,$6,$7,0*
20,1,$1+$1,$6,$7,$8,$9,0*
20,1,$1+$1,$8,$9,$2,$3,0*%
G04 Aperture macros list end*
%ADD10C,0.500000*%
%ADD11R,1.700000X1.700000*%
%ADD12O,1.700000X1.700000*%
%ADD13C,1.700000*%
%ADD14R,1.830000X1.830000*%
%ADD15C,1.830000*%
%ADD16RoundRect,0.750000X1.000000X-0.750000X1.000000X0.750000X-1.000000X0.750000X-1.000000X-0.750000X0*%
%ADD17C,2.500000*%
%ADD18R,1.600000X1.600000*%
%ADD19C,1.600000*%
%ADD20R,3.000000X3.000000*%
%ADD21C,3.000000*%
G04 APERTURE END LIST*
D10*
%TO.C,REF\u002A\u002A*%
X149375000Y-51634000D03*
%TD*%
%TO.C,REF\u002A\u002A*%
X124878000Y-24250000D03*
%TD*%
D11*
%TO.C,J1*%
X131544000Y-32842000D03*
D12*
X131544000Y-35382000D03*
X131544000Y-37922000D03*
X131544000Y-40462000D03*
X131544000Y-43002000D03*
D13*
X131544000Y-45542000D03*
D12*
X129004000Y-32842000D03*
X129004000Y-35382000D03*
X129004000Y-37922000D03*
X129004000Y-40462000D03*
X129004000Y-43002000D03*
X129004000Y-45542000D03*
%TD*%
D14*
%TO.C,U1*%
X161434000Y-48326000D03*
D15*
X161434000Y-45786000D03*
X161434000Y-43246000D03*
X161434000Y-40706000D03*
X161434000Y-38166000D03*
X161434000Y-35626000D03*
X161434000Y-33086000D03*
X161434000Y-30546000D03*
X148734000Y-48326000D03*
X148734000Y-45786000D03*
X148734000Y-43246000D03*
X148734000Y-40706000D03*
X148734000Y-38166000D03*
X148734000Y-35626000D03*
X148734000Y-33086000D03*
X148734000Y-30546000D03*
%TD*%
D16*
%TO.C,J3*%
X140176500Y-93072000D03*
X140176500Y-99072000D03*
D17*
X144876500Y-96072000D03*
%TD*%
D10*
%TO.C,REF\u002A\u002A*%
X172372000Y-65576000D03*
%TD*%
%TO.C,REF\u002A\u002A*%
X149375000Y-78018000D03*
%TD*%
%TO.C,REF\u002A\u002A*%
X145875000Y-79518000D03*
%TD*%
%TO.C,REF\u002A\u002A*%
X172372000Y-37442000D03*
%TD*%
%TO.C,REF\u002A\u002A*%
X124628000Y-94585000D03*
%TD*%
%TO.C,REF\u002A\u002A*%
X172372000Y-41817000D03*
%TD*%
%TO.C,REF\u002A\u002A*%
X172372000Y-94585000D03*
%TD*%
%TO.C,REF\u002A\u002A*%
X124878000Y-23375000D03*
%TD*%
%TO.C,REF\u002A\u002A*%
X124628000Y-63826000D03*
%TD*%
D18*
%TO.C,C1*%
X156502904Y-59988000D03*
D19*
X154002904Y-59988000D03*
%TD*%
D10*
%TO.C,REF\u002A\u002A*%
X172122000Y-107777000D03*
%TD*%
%TO.C,REF\u002A\u002A*%
X178372000Y-27000000D03*
%TD*%
%TO.C,REF\u002A\u002A*%
X147625000Y-26750000D03*
%TD*%
%TO.C,REF\u002A\u002A*%
X172122000Y-23375000D03*
%TD*%
%TO.C,REF\u002A\u002A*%
X124878000Y-22500000D03*
%TD*%
%TO.C,REF\u002A\u002A*%
X172372000Y-38317000D03*
%TD*%
%TO.C,REF\u002A\u002A*%
X145875000Y-78018000D03*
%TD*%
%TO.C,REF\u002A\u002A*%
X124628000Y-67326000D03*
%TD*%
%TO.C,REF\u002A\u002A*%
X172372000Y-40067000D03*
%TD*%
%TO.C,REF\u002A\u002A*%
X124628000Y-39192000D03*
%TD*%
%TO.C,REF\u002A\u002A*%
X172372000Y-68201000D03*
%TD*%
D16*
%TO.C,J3*%
X140176500Y-66688000D03*
X140176500Y-72688000D03*
D17*
X144876500Y-69688000D03*
%TD*%
D10*
%TO.C,REF\u002A\u002A*%
X124878000Y-106902000D03*
%TD*%
%TO.C,REF\u002A\u002A*%
X118628000Y-104152000D03*
%TD*%
%TO.C,REF\u002A\u002A*%
X172122000Y-20750000D03*
%TD*%
%TO.C,REF\u002A\u002A*%
X146750000Y-78018000D03*
%TD*%
%TO.C,REF\u002A\u002A*%
X118628000Y-27000000D03*
%TD*%
%TO.C,REF\u002A\u002A*%
X172372000Y-36567000D03*
%TD*%
D11*
%TO.C,J1*%
X131544000Y-59226000D03*
D12*
X131544000Y-61766000D03*
X131544000Y-64306000D03*
X131544000Y-66846000D03*
X131544000Y-69386000D03*
D13*
X131544000Y-71926000D03*
D12*
X129004000Y-59226000D03*
X129004000Y-61766000D03*
X129004000Y-64306000D03*
X129004000Y-66846000D03*
X129004000Y-69386000D03*
X129004000Y-71926000D03*
%TD*%
D10*
%TO.C,REF\u002A\u002A*%
X119503000Y-27000000D03*
%TD*%
D14*
%TO.C,U1*%
X161434000Y-101094000D03*
D15*
X161434000Y-98554000D03*
X161434000Y-96014000D03*
X161434000Y-93474000D03*
X161434000Y-90934000D03*
X161434000Y-88394000D03*
X161434000Y-85854000D03*
X161434000Y-83314000D03*
X148734000Y-101094000D03*
X148734000Y-98554000D03*
X148734000Y-96014000D03*
X148734000Y-93474000D03*
X148734000Y-90934000D03*
X148734000Y-88394000D03*
X148734000Y-85854000D03*
X148734000Y-83314000D03*
%TD*%
D10*
%TO.C,REF\u002A\u002A*%
X120378000Y-104152000D03*
%TD*%
%TO.C,REF\u002A\u002A*%
X147625000Y-78018000D03*
%TD*%
%TO.C,REF\u002A\u002A*%
X120378000Y-27000000D03*
%TD*%
%TO.C,REF\u002A\u002A*%
X145875000Y-26750000D03*
%TD*%
%TO.C,REF\u002A\u002A*%
X145875000Y-51634000D03*
%TD*%
%TO.C,REF\u002A\u002A*%
X124628000Y-91960000D03*
%TD*%
%TO.C,REF\u002A\u002A*%
X124628000Y-64701000D03*
%TD*%
%TO.C,REF\u002A\u002A*%
X150250000Y-51634000D03*
%TD*%
%TO.C,REF\u002A\u002A*%
X172372000Y-62951000D03*
%TD*%
%TO.C,REF\u002A\u002A*%
X176622000Y-104152000D03*
%TD*%
%TO.C,REF\u002A\u002A*%
X150250000Y-79518000D03*
%TD*%
%TO.C,REF\u002A\u002A*%
X124628000Y-92835000D03*
%TD*%
D20*
%TO.C,J2*%
X168058000Y-73196000D03*
D21*
X168058000Y-68116000D03*
X168058000Y-63036000D03*
X168058000Y-57956000D03*
%TD*%
D10*
%TO.C,REF\u002A\u002A*%
X124878000Y-108652000D03*
%TD*%
%TO.C,REF\u002A\u002A*%
X148500000Y-79518000D03*
%TD*%
%TO.C,REF\u002A\u002A*%
X124628000Y-89335000D03*
%TD*%
%TO.C,REF\u002A\u002A*%
X124878000Y-109527000D03*
%TD*%
%TO.C,REF\u002A\u002A*%
X172372000Y-92835000D03*
%TD*%
%TO.C,REF\u002A\u002A*%
X151125000Y-79518000D03*
%TD*%
%TO.C,REF\u002A\u002A*%
X121253000Y-104152000D03*
%TD*%
%TO.C,REF\u002A\u002A*%
X147625000Y-79518000D03*
%TD*%
%TO.C,REF\u002A\u002A*%
X149375000Y-53134000D03*
%TD*%
%TO.C,REF\u002A\u002A*%
X149375000Y-79518000D03*
%TD*%
D18*
%TO.C,C1*%
X156502904Y-86372000D03*
D19*
X154002904Y-86372000D03*
%TD*%
D10*
%TO.C,REF\u002A\u002A*%
X151125000Y-78018000D03*
%TD*%
%TO.C,REF\u002A\u002A*%
X177497000Y-27000000D03*
%TD*%
%TO.C,REF\u002A\u002A*%
X178372000Y-104152000D03*
%TD*%
%TO.C,REF\u002A\u002A*%
X177497000Y-104152000D03*
%TD*%
%TO.C,REF\u002A\u002A*%
X172122000Y-110402000D03*
%TD*%
%TO.C,REF\u002A\u002A*%
X146750000Y-104402000D03*
%TD*%
%TO.C,REF\u002A\u002A*%
X148500000Y-78018000D03*
%TD*%
D16*
%TO.C,J3*%
X140176500Y-40304000D03*
X140176500Y-46304000D03*
D17*
X144876500Y-43304000D03*
%TD*%
D10*
%TO.C,REF\u002A\u002A*%
X172122000Y-106902000D03*
%TD*%
%TO.C,REF\u002A\u002A*%
X172372000Y-67326000D03*
%TD*%
%TO.C,REF\u002A\u002A*%
X172372000Y-89335000D03*
%TD*%
%TO.C,REF\u002A\u002A*%
X122128000Y-27000000D03*
%TD*%
%TO.C,REF\u002A\u002A*%
X172372000Y-93710000D03*
%TD*%
%TO.C,REF\u002A\u002A*%
X151125000Y-104402000D03*
%TD*%
%TO.C,REF\u002A\u002A*%
X148500000Y-104402000D03*
%TD*%
%TO.C,REF\u002A\u002A*%
X148500000Y-51634000D03*
%TD*%
%TO.C,REF\u002A\u002A*%
X146750000Y-51634000D03*
%TD*%
%TO.C,REF\u002A\u002A*%
X124628000Y-93710000D03*
%TD*%
%TO.C,REF\u002A\u002A*%
X176622000Y-27000000D03*
%TD*%
%TO.C,REF\u002A\u002A*%
X172122000Y-22500000D03*
%TD*%
%TO.C,REF\u002A\u002A*%
X172372000Y-39192000D03*
%TD*%
%TO.C,REF\u002A\u002A*%
X174872000Y-27000000D03*
%TD*%
%TO.C,REF\u002A\u002A*%
X124628000Y-40067000D03*
%TD*%
%TO.C,REF\u002A\u002A*%
X146750000Y-26750000D03*
%TD*%
%TO.C,REF\u002A\u002A*%
X121253000Y-27000000D03*
%TD*%
%TO.C,REF\u002A\u002A*%
X124628000Y-62951000D03*
%TD*%
%TO.C,REF\u002A\u002A*%
X124628000Y-65576000D03*
%TD*%
D18*
%TO.C,C1*%
X156502904Y-33604000D03*
D19*
X154002904Y-33604000D03*
%TD*%
D10*
%TO.C,REF\u002A\u002A*%
X172122000Y-24250000D03*
%TD*%
%TO.C,REF\u002A\u002A*%
X172372000Y-64701000D03*
%TD*%
%TO.C,REF\u002A\u002A*%
X124628000Y-66451000D03*
%TD*%
%TO.C,REF\u002A\u002A*%
X124628000Y-91085000D03*
%TD*%
%TO.C,REF\u002A\u002A*%
X124628000Y-36567000D03*
%TD*%
%TO.C,REF\u002A\u002A*%
X148500000Y-26750000D03*
%TD*%
D20*
%TO.C,J4*%
X142912000Y-57194000D03*
D21*
X137832000Y-57194000D03*
%TD*%
D14*
%TO.C,U1*%
X161434000Y-74710000D03*
D15*
X161434000Y-72170000D03*
X161434000Y-69630000D03*
X161434000Y-67090000D03*
X161434000Y-64550000D03*
X161434000Y-62010000D03*
X161434000Y-59470000D03*
X161434000Y-56930000D03*
X148734000Y-74710000D03*
X148734000Y-72170000D03*
X148734000Y-69630000D03*
X148734000Y-67090000D03*
X148734000Y-64550000D03*
X148734000Y-62010000D03*
X148734000Y-59470000D03*
X148734000Y-56930000D03*
%TD*%
D10*
%TO.C,REF\u002A\u002A*%
X119503000Y-104152000D03*
%TD*%
%TO.C,REF\u002A\u002A*%
X122128000Y-104152000D03*
%TD*%
%TO.C,REF\u002A\u002A*%
X150250000Y-78018000D03*
%TD*%
%TO.C,REF\u002A\u002A*%
X124878000Y-20750000D03*
%TD*%
%TO.C,REF\u002A\u002A*%
X124628000Y-38317000D03*
%TD*%
D20*
%TO.C,J4*%
X142912000Y-30810000D03*
D21*
X137832000Y-30810000D03*
%TD*%
D10*
%TO.C,REF\u002A\u002A*%
X174872000Y-104152000D03*
%TD*%
%TO.C,REF\u002A\u002A*%
X124878000Y-110402000D03*
%TD*%
%TO.C,REF\u002A\u002A*%
X124878000Y-21625000D03*
%TD*%
%TO.C,REF\u002A\u002A*%
X124628000Y-41817000D03*
%TD*%
%TO.C,REF\u002A\u002A*%
X147625000Y-104402000D03*
%TD*%
%TO.C,REF\u002A\u002A*%
X175747000Y-104152000D03*
%TD*%
%TO.C,REF\u002A\u002A*%
X172122000Y-108652000D03*
%TD*%
%TO.C,REF\u002A\u002A*%
X148500000Y-53134000D03*
%TD*%
%TO.C,REF\u002A\u002A*%
X149375000Y-26750000D03*
%TD*%
%TO.C,REF\u002A\u002A*%
X124628000Y-68201000D03*
%TD*%
%TO.C,REF\u002A\u002A*%
X146750000Y-79518000D03*
%TD*%
%TO.C,REF\u002A\u002A*%
X150250000Y-26750000D03*
%TD*%
D20*
%TO.C,J4*%
X142912000Y-83578000D03*
D21*
X137832000Y-83578000D03*
%TD*%
D10*
%TO.C,REF\u002A\u002A*%
X151125000Y-53134000D03*
%TD*%
%TO.C,REF\u002A\u002A*%
X175747000Y-27000000D03*
%TD*%
D20*
%TO.C,J2*%
X168058000Y-99580000D03*
D21*
X168058000Y-94500000D03*
X168058000Y-89420000D03*
X168058000Y-84340000D03*
%TD*%
D10*
%TO.C,REF\u002A\u002A*%
X149375000Y-104402000D03*
%TD*%
%TO.C,REF\u002A\u002A*%
X172372000Y-90210000D03*
%TD*%
%TO.C,REF\u002A\u002A*%
X172372000Y-91960000D03*
%TD*%
D20*
%TO.C,J2*%
X168058000Y-46812000D03*
D21*
X168058000Y-41732000D03*
X168058000Y-36652000D03*
X168058000Y-31572000D03*
%TD*%
D11*
%TO.C,J1*%
X131544000Y-85610000D03*
D12*
X131544000Y-88150000D03*
X131544000Y-90690000D03*
X131544000Y-93230000D03*
X131544000Y-95770000D03*
D13*
X131544000Y-98310000D03*
D12*
X129004000Y-85610000D03*
X129004000Y-88150000D03*
X129004000Y-90690000D03*
X129004000Y-93230000D03*
X129004000Y-95770000D03*
X129004000Y-98310000D03*
%TD*%
D10*
%TO.C,REF\u002A\u002A*%
X124628000Y-90210000D03*
%TD*%
%TO.C,REF\u002A\u002A*%
X147625000Y-51634000D03*
%TD*%
%TO.C,REF\u002A\u002A*%
X147625000Y-53134000D03*
%TD*%
%TO.C,REF\u002A\u002A*%
X146750000Y-53134000D03*
%TD*%
%TO.C,REF\u002A\u002A*%
X172372000Y-66451000D03*
%TD*%
%TO.C,REF\u002A\u002A*%
X172372000Y-63826000D03*
%TD*%
%TO.C,REF\u002A\u002A*%
X172372000Y-91085000D03*
%TD*%
%TO.C,REF\u002A\u002A*%
X172122000Y-21625000D03*
%TD*%
%TO.C,REF\u002A\u002A*%
X151125000Y-51634000D03*
%TD*%
%TO.C,REF\u002A\u002A*%
X172372000Y-40942000D03*
%TD*%
%TO.C,REF\u002A\u002A*%
X172122000Y-109527000D03*
%TD*%
%TO.C,REF\u002A\u002A*%
X145875000Y-104402000D03*
%TD*%
%TO.C,REF\u002A\u002A*%
X124878000Y-107777000D03*
%TD*%
%TO.C,REF\u002A\u002A*%
X150250000Y-104402000D03*
%TD*%
%TO.C,REF\u002A\u002A*%
X151125000Y-26750000D03*
%TD*%
%TO.C,REF\u002A\u002A*%
X124628000Y-37442000D03*
%TD*%
%TO.C,REF\u002A\u002A*%
X145875000Y-53134000D03*
%TD*%
%TO.C,REF\u002A\u002A*%
X150250000Y-53134000D03*
%TD*%
%TO.C,REF\u002A\u002A*%
X124628000Y-40942000D03*
%TD*%
M02*
