%TF.GenerationSoftware,KiCad,Pcbnew,(6.0.11)*%
%TF.CreationDate,2023-02-22T21:13:02+09:00*%
%TF.ProjectId,panel,70616e65-6c2e-46b6-9963-61645f706362,rev?*%
%TF.SameCoordinates,Original*%
%TF.FileFunction,Legend,Top*%
%TF.FilePolarity,Positive*%
%FSLAX46Y46*%
G04 Gerber Fmt 4.6, Leading zero omitted, Abs format (unit mm)*
G04 Created by KiCad (PCBNEW (6.0.11)) date 2023-02-22 21:13:02*
%MOMM*%
%LPD*%
G01*
G04 APERTURE LIST*
%ADD10C,0.150000*%
%ADD11C,0.254000*%
%ADD12C,0.120000*%
%ADD13C,0.200000*%
%ADD14C,0.100000*%
G04 APERTURE END LIST*
D10*
X156073333Y-28722380D02*
X156073333Y-27722380D01*
X156454285Y-27722380D01*
X156549523Y-27770000D01*
X156597142Y-27817619D01*
X156644761Y-27912857D01*
X156644761Y-28055714D01*
X156597142Y-28150952D01*
X156549523Y-28198571D01*
X156454285Y-28246190D01*
X156073333Y-28246190D01*
X157073333Y-28722380D02*
X157073333Y-28055714D01*
X157073333Y-28150952D02*
X157120952Y-28103333D01*
X157216190Y-28055714D01*
X157359047Y-28055714D01*
X157454285Y-28103333D01*
X157501904Y-28198571D01*
X157501904Y-28722380D01*
X157501904Y-28198571D02*
X157549523Y-28103333D01*
X157644761Y-28055714D01*
X157787619Y-28055714D01*
X157882857Y-28103333D01*
X157930476Y-28198571D01*
X157930476Y-28722380D01*
X158549523Y-28722380D02*
X158454285Y-28674761D01*
X158406666Y-28627142D01*
X158359047Y-28531904D01*
X158359047Y-28246190D01*
X158406666Y-28150952D01*
X158454285Y-28103333D01*
X158549523Y-28055714D01*
X158692380Y-28055714D01*
X158787619Y-28103333D01*
X158835238Y-28150952D01*
X158882857Y-28246190D01*
X158882857Y-28531904D01*
X158835238Y-28627142D01*
X158787619Y-28674761D01*
X158692380Y-28722380D01*
X158549523Y-28722380D01*
X159740000Y-28722380D02*
X159740000Y-27722380D01*
X159740000Y-28674761D02*
X159644761Y-28722380D01*
X159454285Y-28722380D01*
X159359047Y-28674761D01*
X159311428Y-28627142D01*
X159263809Y-28531904D01*
X159263809Y-28246190D01*
X159311428Y-28150952D01*
X159359047Y-28103333D01*
X159454285Y-28055714D01*
X159644761Y-28055714D01*
X159740000Y-28103333D01*
X160930476Y-28436666D02*
X161406666Y-28436666D01*
X160835238Y-28722380D02*
X161168571Y-27722380D01*
X161501904Y-28722380D01*
X162263809Y-28055714D02*
X162263809Y-28722380D01*
X162025714Y-27674761D02*
X161787619Y-28389047D01*
X162406666Y-28389047D01*
X162835238Y-28722380D02*
X163025714Y-28722380D01*
X163120952Y-28674761D01*
X163168571Y-28627142D01*
X163263809Y-28484285D01*
X163311428Y-28293809D01*
X163311428Y-27912857D01*
X163263809Y-27817619D01*
X163216190Y-27770000D01*
X163120952Y-27722380D01*
X162930476Y-27722380D01*
X162835238Y-27770000D01*
X162787619Y-27817619D01*
X162740000Y-27912857D01*
X162740000Y-28150952D01*
X162787619Y-28246190D01*
X162835238Y-28293809D01*
X162930476Y-28341428D01*
X163120952Y-28341428D01*
X163216190Y-28293809D01*
X163263809Y-28246190D01*
X163311428Y-28150952D01*
X163882857Y-28150952D02*
X163787619Y-28103333D01*
X163740000Y-28055714D01*
X163692380Y-27960476D01*
X163692380Y-27912857D01*
X163740000Y-27817619D01*
X163787619Y-27770000D01*
X163882857Y-27722380D01*
X164073333Y-27722380D01*
X164168571Y-27770000D01*
X164216190Y-27817619D01*
X164263809Y-27912857D01*
X164263809Y-27960476D01*
X164216190Y-28055714D01*
X164168571Y-28103333D01*
X164073333Y-28150952D01*
X163882857Y-28150952D01*
X163787619Y-28198571D01*
X163740000Y-28246190D01*
X163692380Y-28341428D01*
X163692380Y-28531904D01*
X163740000Y-28627142D01*
X163787619Y-28674761D01*
X163882857Y-28722380D01*
X164073333Y-28722380D01*
X164168571Y-28674761D01*
X164216190Y-28627142D01*
X164263809Y-28531904D01*
X164263809Y-28341428D01*
X164216190Y-28246190D01*
X164168571Y-28198571D01*
X164073333Y-28150952D01*
X164835238Y-28150952D02*
X164740000Y-28103333D01*
X164692380Y-28055714D01*
X164644761Y-27960476D01*
X164644761Y-27912857D01*
X164692380Y-27817619D01*
X164740000Y-27770000D01*
X164835238Y-27722380D01*
X165025714Y-27722380D01*
X165120952Y-27770000D01*
X165168571Y-27817619D01*
X165216190Y-27912857D01*
X165216190Y-27960476D01*
X165168571Y-28055714D01*
X165120952Y-28103333D01*
X165025714Y-28150952D01*
X164835238Y-28150952D01*
X164740000Y-28198571D01*
X164692380Y-28246190D01*
X164644761Y-28341428D01*
X164644761Y-28531904D01*
X164692380Y-28627142D01*
X164740000Y-28674761D01*
X164835238Y-28722380D01*
X165025714Y-28722380D01*
X165120952Y-28674761D01*
X165168571Y-28627142D01*
X165216190Y-28531904D01*
X165216190Y-28341428D01*
X165168571Y-28246190D01*
X165120952Y-28198571D01*
X165025714Y-28150952D01*
X166263809Y-27722380D02*
X166597142Y-28722380D01*
X166930476Y-27722380D01*
X167644761Y-28674761D02*
X167549523Y-28722380D01*
X167359047Y-28722380D01*
X167263809Y-28674761D01*
X167216190Y-28579523D01*
X167216190Y-28198571D01*
X167263809Y-28103333D01*
X167359047Y-28055714D01*
X167549523Y-28055714D01*
X167644761Y-28103333D01*
X167692380Y-28198571D01*
X167692380Y-28293809D01*
X167216190Y-28389047D01*
X168120952Y-28722380D02*
X168120952Y-28055714D01*
X168120952Y-28246190D02*
X168168571Y-28150952D01*
X168216190Y-28103333D01*
X168311428Y-28055714D01*
X168406666Y-28055714D01*
X169692380Y-27722380D02*
X169787619Y-27722380D01*
X169882857Y-27770000D01*
X169930476Y-27817619D01*
X169978095Y-27912857D01*
X170025714Y-28103333D01*
X170025714Y-28341428D01*
X169978095Y-28531904D01*
X169930476Y-28627142D01*
X169882857Y-28674761D01*
X169787619Y-28722380D01*
X169692380Y-28722380D01*
X169597142Y-28674761D01*
X169549523Y-28627142D01*
X169501904Y-28531904D01*
X169454285Y-28341428D01*
X169454285Y-28103333D01*
X169501904Y-27912857D01*
X169549523Y-27817619D01*
X169597142Y-27770000D01*
X169692380Y-27722380D01*
X170454285Y-28627142D02*
X170501904Y-28674761D01*
X170454285Y-28722380D01*
X170406666Y-28674761D01*
X170454285Y-28627142D01*
X170454285Y-28722380D01*
X171454285Y-28722380D02*
X170882857Y-28722380D01*
X171168571Y-28722380D02*
X171168571Y-27722380D01*
X171073333Y-27865238D01*
X170978095Y-27960476D01*
X170882857Y-28008095D01*
X156073333Y-55106380D02*
X156073333Y-54106380D01*
X156454285Y-54106380D01*
X156549523Y-54154000D01*
X156597142Y-54201619D01*
X156644761Y-54296857D01*
X156644761Y-54439714D01*
X156597142Y-54534952D01*
X156549523Y-54582571D01*
X156454285Y-54630190D01*
X156073333Y-54630190D01*
X157073333Y-55106380D02*
X157073333Y-54439714D01*
X157073333Y-54534952D02*
X157120952Y-54487333D01*
X157216190Y-54439714D01*
X157359047Y-54439714D01*
X157454285Y-54487333D01*
X157501904Y-54582571D01*
X157501904Y-55106380D01*
X157501904Y-54582571D02*
X157549523Y-54487333D01*
X157644761Y-54439714D01*
X157787619Y-54439714D01*
X157882857Y-54487333D01*
X157930476Y-54582571D01*
X157930476Y-55106380D01*
X158549523Y-55106380D02*
X158454285Y-55058761D01*
X158406666Y-55011142D01*
X158359047Y-54915904D01*
X158359047Y-54630190D01*
X158406666Y-54534952D01*
X158454285Y-54487333D01*
X158549523Y-54439714D01*
X158692380Y-54439714D01*
X158787619Y-54487333D01*
X158835238Y-54534952D01*
X158882857Y-54630190D01*
X158882857Y-54915904D01*
X158835238Y-55011142D01*
X158787619Y-55058761D01*
X158692380Y-55106380D01*
X158549523Y-55106380D01*
X159740000Y-55106380D02*
X159740000Y-54106380D01*
X159740000Y-55058761D02*
X159644761Y-55106380D01*
X159454285Y-55106380D01*
X159359047Y-55058761D01*
X159311428Y-55011142D01*
X159263809Y-54915904D01*
X159263809Y-54630190D01*
X159311428Y-54534952D01*
X159359047Y-54487333D01*
X159454285Y-54439714D01*
X159644761Y-54439714D01*
X159740000Y-54487333D01*
X160930476Y-54820666D02*
X161406666Y-54820666D01*
X160835238Y-55106380D02*
X161168571Y-54106380D01*
X161501904Y-55106380D01*
X162263809Y-54439714D02*
X162263809Y-55106380D01*
X162025714Y-54058761D02*
X161787619Y-54773047D01*
X162406666Y-54773047D01*
X162835238Y-55106380D02*
X163025714Y-55106380D01*
X163120952Y-55058761D01*
X163168571Y-55011142D01*
X163263809Y-54868285D01*
X163311428Y-54677809D01*
X163311428Y-54296857D01*
X163263809Y-54201619D01*
X163216190Y-54154000D01*
X163120952Y-54106380D01*
X162930476Y-54106380D01*
X162835238Y-54154000D01*
X162787619Y-54201619D01*
X162740000Y-54296857D01*
X162740000Y-54534952D01*
X162787619Y-54630190D01*
X162835238Y-54677809D01*
X162930476Y-54725428D01*
X163120952Y-54725428D01*
X163216190Y-54677809D01*
X163263809Y-54630190D01*
X163311428Y-54534952D01*
X163882857Y-54534952D02*
X163787619Y-54487333D01*
X163740000Y-54439714D01*
X163692380Y-54344476D01*
X163692380Y-54296857D01*
X163740000Y-54201619D01*
X163787619Y-54154000D01*
X163882857Y-54106380D01*
X164073333Y-54106380D01*
X164168571Y-54154000D01*
X164216190Y-54201619D01*
X164263809Y-54296857D01*
X164263809Y-54344476D01*
X164216190Y-54439714D01*
X164168571Y-54487333D01*
X164073333Y-54534952D01*
X163882857Y-54534952D01*
X163787619Y-54582571D01*
X163740000Y-54630190D01*
X163692380Y-54725428D01*
X163692380Y-54915904D01*
X163740000Y-55011142D01*
X163787619Y-55058761D01*
X163882857Y-55106380D01*
X164073333Y-55106380D01*
X164168571Y-55058761D01*
X164216190Y-55011142D01*
X164263809Y-54915904D01*
X164263809Y-54725428D01*
X164216190Y-54630190D01*
X164168571Y-54582571D01*
X164073333Y-54534952D01*
X164835238Y-54534952D02*
X164740000Y-54487333D01*
X164692380Y-54439714D01*
X164644761Y-54344476D01*
X164644761Y-54296857D01*
X164692380Y-54201619D01*
X164740000Y-54154000D01*
X164835238Y-54106380D01*
X165025714Y-54106380D01*
X165120952Y-54154000D01*
X165168571Y-54201619D01*
X165216190Y-54296857D01*
X165216190Y-54344476D01*
X165168571Y-54439714D01*
X165120952Y-54487333D01*
X165025714Y-54534952D01*
X164835238Y-54534952D01*
X164740000Y-54582571D01*
X164692380Y-54630190D01*
X164644761Y-54725428D01*
X164644761Y-54915904D01*
X164692380Y-55011142D01*
X164740000Y-55058761D01*
X164835238Y-55106380D01*
X165025714Y-55106380D01*
X165120952Y-55058761D01*
X165168571Y-55011142D01*
X165216190Y-54915904D01*
X165216190Y-54725428D01*
X165168571Y-54630190D01*
X165120952Y-54582571D01*
X165025714Y-54534952D01*
X166263809Y-54106380D02*
X166597142Y-55106380D01*
X166930476Y-54106380D01*
X167644761Y-55058761D02*
X167549523Y-55106380D01*
X167359047Y-55106380D01*
X167263809Y-55058761D01*
X167216190Y-54963523D01*
X167216190Y-54582571D01*
X167263809Y-54487333D01*
X167359047Y-54439714D01*
X167549523Y-54439714D01*
X167644761Y-54487333D01*
X167692380Y-54582571D01*
X167692380Y-54677809D01*
X167216190Y-54773047D01*
X168120952Y-55106380D02*
X168120952Y-54439714D01*
X168120952Y-54630190D02*
X168168571Y-54534952D01*
X168216190Y-54487333D01*
X168311428Y-54439714D01*
X168406666Y-54439714D01*
X169692380Y-54106380D02*
X169787619Y-54106380D01*
X169882857Y-54154000D01*
X169930476Y-54201619D01*
X169978095Y-54296857D01*
X170025714Y-54487333D01*
X170025714Y-54725428D01*
X169978095Y-54915904D01*
X169930476Y-55011142D01*
X169882857Y-55058761D01*
X169787619Y-55106380D01*
X169692380Y-55106380D01*
X169597142Y-55058761D01*
X169549523Y-55011142D01*
X169501904Y-54915904D01*
X169454285Y-54725428D01*
X169454285Y-54487333D01*
X169501904Y-54296857D01*
X169549523Y-54201619D01*
X169597142Y-54154000D01*
X169692380Y-54106380D01*
X170454285Y-55011142D02*
X170501904Y-55058761D01*
X170454285Y-55106380D01*
X170406666Y-55058761D01*
X170454285Y-55011142D01*
X170454285Y-55106380D01*
X171454285Y-55106380D02*
X170882857Y-55106380D01*
X171168571Y-55106380D02*
X171168571Y-54106380D01*
X171073333Y-54249238D01*
X170978095Y-54344476D01*
X170882857Y-54392095D01*
X156073333Y-81490380D02*
X156073333Y-80490380D01*
X156454285Y-80490380D01*
X156549523Y-80538000D01*
X156597142Y-80585619D01*
X156644761Y-80680857D01*
X156644761Y-80823714D01*
X156597142Y-80918952D01*
X156549523Y-80966571D01*
X156454285Y-81014190D01*
X156073333Y-81014190D01*
X157073333Y-81490380D02*
X157073333Y-80823714D01*
X157073333Y-80918952D02*
X157120952Y-80871333D01*
X157216190Y-80823714D01*
X157359047Y-80823714D01*
X157454285Y-80871333D01*
X157501904Y-80966571D01*
X157501904Y-81490380D01*
X157501904Y-80966571D02*
X157549523Y-80871333D01*
X157644761Y-80823714D01*
X157787619Y-80823714D01*
X157882857Y-80871333D01*
X157930476Y-80966571D01*
X157930476Y-81490380D01*
X158549523Y-81490380D02*
X158454285Y-81442761D01*
X158406666Y-81395142D01*
X158359047Y-81299904D01*
X158359047Y-81014190D01*
X158406666Y-80918952D01*
X158454285Y-80871333D01*
X158549523Y-80823714D01*
X158692380Y-80823714D01*
X158787619Y-80871333D01*
X158835238Y-80918952D01*
X158882857Y-81014190D01*
X158882857Y-81299904D01*
X158835238Y-81395142D01*
X158787619Y-81442761D01*
X158692380Y-81490380D01*
X158549523Y-81490380D01*
X159740000Y-81490380D02*
X159740000Y-80490380D01*
X159740000Y-81442761D02*
X159644761Y-81490380D01*
X159454285Y-81490380D01*
X159359047Y-81442761D01*
X159311428Y-81395142D01*
X159263809Y-81299904D01*
X159263809Y-81014190D01*
X159311428Y-80918952D01*
X159359047Y-80871333D01*
X159454285Y-80823714D01*
X159644761Y-80823714D01*
X159740000Y-80871333D01*
X160930476Y-81204666D02*
X161406666Y-81204666D01*
X160835238Y-81490380D02*
X161168571Y-80490380D01*
X161501904Y-81490380D01*
X162263809Y-80823714D02*
X162263809Y-81490380D01*
X162025714Y-80442761D02*
X161787619Y-81157047D01*
X162406666Y-81157047D01*
X162835238Y-81490380D02*
X163025714Y-81490380D01*
X163120952Y-81442761D01*
X163168571Y-81395142D01*
X163263809Y-81252285D01*
X163311428Y-81061809D01*
X163311428Y-80680857D01*
X163263809Y-80585619D01*
X163216190Y-80538000D01*
X163120952Y-80490380D01*
X162930476Y-80490380D01*
X162835238Y-80538000D01*
X162787619Y-80585619D01*
X162740000Y-80680857D01*
X162740000Y-80918952D01*
X162787619Y-81014190D01*
X162835238Y-81061809D01*
X162930476Y-81109428D01*
X163120952Y-81109428D01*
X163216190Y-81061809D01*
X163263809Y-81014190D01*
X163311428Y-80918952D01*
X163882857Y-80918952D02*
X163787619Y-80871333D01*
X163740000Y-80823714D01*
X163692380Y-80728476D01*
X163692380Y-80680857D01*
X163740000Y-80585619D01*
X163787619Y-80538000D01*
X163882857Y-80490380D01*
X164073333Y-80490380D01*
X164168571Y-80538000D01*
X164216190Y-80585619D01*
X164263809Y-80680857D01*
X164263809Y-80728476D01*
X164216190Y-80823714D01*
X164168571Y-80871333D01*
X164073333Y-80918952D01*
X163882857Y-80918952D01*
X163787619Y-80966571D01*
X163740000Y-81014190D01*
X163692380Y-81109428D01*
X163692380Y-81299904D01*
X163740000Y-81395142D01*
X163787619Y-81442761D01*
X163882857Y-81490380D01*
X164073333Y-81490380D01*
X164168571Y-81442761D01*
X164216190Y-81395142D01*
X164263809Y-81299904D01*
X164263809Y-81109428D01*
X164216190Y-81014190D01*
X164168571Y-80966571D01*
X164073333Y-80918952D01*
X164835238Y-80918952D02*
X164740000Y-80871333D01*
X164692380Y-80823714D01*
X164644761Y-80728476D01*
X164644761Y-80680857D01*
X164692380Y-80585619D01*
X164740000Y-80538000D01*
X164835238Y-80490380D01*
X165025714Y-80490380D01*
X165120952Y-80538000D01*
X165168571Y-80585619D01*
X165216190Y-80680857D01*
X165216190Y-80728476D01*
X165168571Y-80823714D01*
X165120952Y-80871333D01*
X165025714Y-80918952D01*
X164835238Y-80918952D01*
X164740000Y-80966571D01*
X164692380Y-81014190D01*
X164644761Y-81109428D01*
X164644761Y-81299904D01*
X164692380Y-81395142D01*
X164740000Y-81442761D01*
X164835238Y-81490380D01*
X165025714Y-81490380D01*
X165120952Y-81442761D01*
X165168571Y-81395142D01*
X165216190Y-81299904D01*
X165216190Y-81109428D01*
X165168571Y-81014190D01*
X165120952Y-80966571D01*
X165025714Y-80918952D01*
X166263809Y-80490380D02*
X166597142Y-81490380D01*
X166930476Y-80490380D01*
X167644761Y-81442761D02*
X167549523Y-81490380D01*
X167359047Y-81490380D01*
X167263809Y-81442761D01*
X167216190Y-81347523D01*
X167216190Y-80966571D01*
X167263809Y-80871333D01*
X167359047Y-80823714D01*
X167549523Y-80823714D01*
X167644761Y-80871333D01*
X167692380Y-80966571D01*
X167692380Y-81061809D01*
X167216190Y-81157047D01*
X168120952Y-81490380D02*
X168120952Y-80823714D01*
X168120952Y-81014190D02*
X168168571Y-80918952D01*
X168216190Y-80871333D01*
X168311428Y-80823714D01*
X168406666Y-80823714D01*
X169692380Y-80490380D02*
X169787619Y-80490380D01*
X169882857Y-80538000D01*
X169930476Y-80585619D01*
X169978095Y-80680857D01*
X170025714Y-80871333D01*
X170025714Y-81109428D01*
X169978095Y-81299904D01*
X169930476Y-81395142D01*
X169882857Y-81442761D01*
X169787619Y-81490380D01*
X169692380Y-81490380D01*
X169597142Y-81442761D01*
X169549523Y-81395142D01*
X169501904Y-81299904D01*
X169454285Y-81109428D01*
X169454285Y-80871333D01*
X169501904Y-80680857D01*
X169549523Y-80585619D01*
X169597142Y-80538000D01*
X169692380Y-80490380D01*
X170454285Y-81395142D02*
X170501904Y-81442761D01*
X170454285Y-81490380D01*
X170406666Y-81442761D01*
X170454285Y-81395142D01*
X170454285Y-81490380D01*
X171454285Y-81490380D02*
X170882857Y-81490380D01*
X171168571Y-81490380D02*
X171168571Y-80490380D01*
X171073333Y-80633238D01*
X170978095Y-80728476D01*
X170882857Y-80776095D01*
%TO.C,J1*%
X125555666Y-47264380D02*
X125555666Y-47978666D01*
X125508047Y-48121523D01*
X125412809Y-48216761D01*
X125269952Y-48264380D01*
X125174714Y-48264380D01*
X126555666Y-48264380D02*
X125984238Y-48264380D01*
X126269952Y-48264380D02*
X126269952Y-47264380D01*
X126174714Y-47407238D01*
X126079476Y-47502476D01*
X125984238Y-47550095D01*
D11*
%TO.C,U1*%
X154136380Y-38750523D02*
X154136380Y-39778619D01*
X154196857Y-39899571D01*
X154257333Y-39960047D01*
X154378285Y-40020523D01*
X154620190Y-40020523D01*
X154741142Y-39960047D01*
X154801619Y-39899571D01*
X154862095Y-39778619D01*
X154862095Y-38750523D01*
X156132095Y-40020523D02*
X155406380Y-40020523D01*
X155769238Y-40020523D02*
X155769238Y-38750523D01*
X155648285Y-38931952D01*
X155527333Y-39052904D01*
X155406380Y-39113380D01*
D10*
%TO.C,J3*%
X145378880Y-101855333D02*
X146093166Y-101855333D01*
X146236023Y-101902952D01*
X146331261Y-101998190D01*
X146378880Y-102141047D01*
X146378880Y-102236285D01*
X145378880Y-101474380D02*
X145378880Y-100855333D01*
X145759833Y-101188666D01*
X145759833Y-101045809D01*
X145807452Y-100950571D01*
X145855071Y-100902952D01*
X145950309Y-100855333D01*
X146188404Y-100855333D01*
X146283642Y-100902952D01*
X146331261Y-100950571D01*
X146378880Y-101045809D01*
X146378880Y-101331523D01*
X146331261Y-101426761D01*
X146283642Y-101474380D01*
%TO.C,C1*%
X155086237Y-64095142D02*
X155038618Y-64142761D01*
X154895761Y-64190380D01*
X154800523Y-64190380D01*
X154657665Y-64142761D01*
X154562427Y-64047523D01*
X154514808Y-63952285D01*
X154467189Y-63761809D01*
X154467189Y-63618952D01*
X154514808Y-63428476D01*
X154562427Y-63333238D01*
X154657665Y-63238000D01*
X154800523Y-63190380D01*
X154895761Y-63190380D01*
X155038618Y-63238000D01*
X155086237Y-63285619D01*
X156038618Y-64190380D02*
X155467189Y-64190380D01*
X155752904Y-64190380D02*
X155752904Y-63190380D01*
X155657665Y-63333238D01*
X155562427Y-63428476D01*
X155467189Y-63476095D01*
%TO.C,J3*%
X145378880Y-75471333D02*
X146093166Y-75471333D01*
X146236023Y-75518952D01*
X146331261Y-75614190D01*
X146378880Y-75757047D01*
X146378880Y-75852285D01*
X145378880Y-75090380D02*
X145378880Y-74471333D01*
X145759833Y-74804666D01*
X145759833Y-74661809D01*
X145807452Y-74566571D01*
X145855071Y-74518952D01*
X145950309Y-74471333D01*
X146188404Y-74471333D01*
X146283642Y-74518952D01*
X146331261Y-74566571D01*
X146378880Y-74661809D01*
X146378880Y-74947523D01*
X146331261Y-75042761D01*
X146283642Y-75090380D01*
%TO.C,J1*%
X125555666Y-73648380D02*
X125555666Y-74362666D01*
X125508047Y-74505523D01*
X125412809Y-74600761D01*
X125269952Y-74648380D01*
X125174714Y-74648380D01*
X126555666Y-74648380D02*
X125984238Y-74648380D01*
X126269952Y-74648380D02*
X126269952Y-73648380D01*
X126174714Y-73791238D01*
X126079476Y-73886476D01*
X125984238Y-73934095D01*
D11*
%TO.C,U1*%
X154136380Y-91518523D02*
X154136380Y-92546619D01*
X154196857Y-92667571D01*
X154257333Y-92728047D01*
X154378285Y-92788523D01*
X154620190Y-92788523D01*
X154741142Y-92728047D01*
X154801619Y-92667571D01*
X154862095Y-92546619D01*
X154862095Y-91518523D01*
X156132095Y-92788523D02*
X155406380Y-92788523D01*
X155769238Y-92788523D02*
X155769238Y-91518523D01*
X155648285Y-91699952D01*
X155527333Y-91820904D01*
X155406380Y-91881380D01*
D10*
%TO.C,J2*%
X167216666Y-76204380D02*
X167216666Y-76918666D01*
X167169047Y-77061523D01*
X167073809Y-77156761D01*
X166930952Y-77204380D01*
X166835714Y-77204380D01*
X167645238Y-76299619D02*
X167692857Y-76252000D01*
X167788095Y-76204380D01*
X168026190Y-76204380D01*
X168121428Y-76252000D01*
X168169047Y-76299619D01*
X168216666Y-76394857D01*
X168216666Y-76490095D01*
X168169047Y-76632952D01*
X167597619Y-77204380D01*
X168216666Y-77204380D01*
%TO.C,C1*%
X155086237Y-90479142D02*
X155038618Y-90526761D01*
X154895761Y-90574380D01*
X154800523Y-90574380D01*
X154657665Y-90526761D01*
X154562427Y-90431523D01*
X154514808Y-90336285D01*
X154467189Y-90145809D01*
X154467189Y-90002952D01*
X154514808Y-89812476D01*
X154562427Y-89717238D01*
X154657665Y-89622000D01*
X154800523Y-89574380D01*
X154895761Y-89574380D01*
X155038618Y-89622000D01*
X155086237Y-89669619D01*
X156038618Y-90574380D02*
X155467189Y-90574380D01*
X155752904Y-90574380D02*
X155752904Y-89574380D01*
X155657665Y-89717238D01*
X155562427Y-89812476D01*
X155467189Y-89860095D01*
%TO.C,J3*%
X145378880Y-49087333D02*
X146093166Y-49087333D01*
X146236023Y-49134952D01*
X146331261Y-49230190D01*
X146378880Y-49373047D01*
X146378880Y-49468285D01*
X145378880Y-48706380D02*
X145378880Y-48087333D01*
X145759833Y-48420666D01*
X145759833Y-48277809D01*
X145807452Y-48182571D01*
X145855071Y-48134952D01*
X145950309Y-48087333D01*
X146188404Y-48087333D01*
X146283642Y-48134952D01*
X146331261Y-48182571D01*
X146378880Y-48277809D01*
X146378880Y-48563523D01*
X146331261Y-48658761D01*
X146283642Y-48706380D01*
%TO.C,C1*%
X155086237Y-37711142D02*
X155038618Y-37758761D01*
X154895761Y-37806380D01*
X154800523Y-37806380D01*
X154657665Y-37758761D01*
X154562427Y-37663523D01*
X154514808Y-37568285D01*
X154467189Y-37377809D01*
X154467189Y-37234952D01*
X154514808Y-37044476D01*
X154562427Y-36949238D01*
X154657665Y-36854000D01*
X154800523Y-36806380D01*
X154895761Y-36806380D01*
X155038618Y-36854000D01*
X155086237Y-36901619D01*
X156038618Y-37806380D02*
X155467189Y-37806380D01*
X155752904Y-37806380D02*
X155752904Y-36806380D01*
X155657665Y-36949238D01*
X155562427Y-37044476D01*
X155467189Y-37092095D01*
%TO.C,J4*%
X140038666Y-61472380D02*
X140038666Y-62186666D01*
X139991047Y-62329523D01*
X139895809Y-62424761D01*
X139752952Y-62472380D01*
X139657714Y-62472380D01*
X140943428Y-61805714D02*
X140943428Y-62472380D01*
X140705333Y-61424761D02*
X140467238Y-62139047D01*
X141086285Y-62139047D01*
D11*
%TO.C,U1*%
X154136380Y-65134523D02*
X154136380Y-66162619D01*
X154196857Y-66283571D01*
X154257333Y-66344047D01*
X154378285Y-66404523D01*
X154620190Y-66404523D01*
X154741142Y-66344047D01*
X154801619Y-66283571D01*
X154862095Y-66162619D01*
X154862095Y-65134523D01*
X156132095Y-66404523D02*
X155406380Y-66404523D01*
X155769238Y-66404523D02*
X155769238Y-65134523D01*
X155648285Y-65315952D01*
X155527333Y-65436904D01*
X155406380Y-65497380D01*
D10*
%TO.C,J4*%
X140038666Y-35088380D02*
X140038666Y-35802666D01*
X139991047Y-35945523D01*
X139895809Y-36040761D01*
X139752952Y-36088380D01*
X139657714Y-36088380D01*
X140943428Y-35421714D02*
X140943428Y-36088380D01*
X140705333Y-35040761D02*
X140467238Y-35755047D01*
X141086285Y-35755047D01*
X140038666Y-87856380D02*
X140038666Y-88570666D01*
X139991047Y-88713523D01*
X139895809Y-88808761D01*
X139752952Y-88856380D01*
X139657714Y-88856380D01*
X140943428Y-88189714D02*
X140943428Y-88856380D01*
X140705333Y-87808761D02*
X140467238Y-88523047D01*
X141086285Y-88523047D01*
%TO.C,J2*%
X167216666Y-102588380D02*
X167216666Y-103302666D01*
X167169047Y-103445523D01*
X167073809Y-103540761D01*
X166930952Y-103588380D01*
X166835714Y-103588380D01*
X167645238Y-102683619D02*
X167692857Y-102636000D01*
X167788095Y-102588380D01*
X168026190Y-102588380D01*
X168121428Y-102636000D01*
X168169047Y-102683619D01*
X168216666Y-102778857D01*
X168216666Y-102874095D01*
X168169047Y-103016952D01*
X167597619Y-103588380D01*
X168216666Y-103588380D01*
X167216666Y-49820380D02*
X167216666Y-50534666D01*
X167169047Y-50677523D01*
X167073809Y-50772761D01*
X166930952Y-50820380D01*
X166835714Y-50820380D01*
X167645238Y-49915619D02*
X167692857Y-49868000D01*
X167788095Y-49820380D01*
X168026190Y-49820380D01*
X168121428Y-49868000D01*
X168169047Y-49915619D01*
X168216666Y-50010857D01*
X168216666Y-50106095D01*
X168169047Y-50248952D01*
X167597619Y-50820380D01*
X168216666Y-50820380D01*
%TO.C,J1*%
X125555666Y-100032380D02*
X125555666Y-100746666D01*
X125508047Y-100889523D01*
X125412809Y-100984761D01*
X125269952Y-101032380D01*
X125174714Y-101032380D01*
X126555666Y-101032380D02*
X125984238Y-101032380D01*
X126269952Y-101032380D02*
X126269952Y-100032380D01*
X126174714Y-100175238D01*
X126079476Y-100270476D01*
X125984238Y-100318095D01*
D12*
X130434000Y-45162000D02*
X130046929Y-45162000D01*
X118904000Y-35762000D02*
X118904000Y-35002000D01*
X130501071Y-35002000D02*
X130046929Y-35002000D01*
X118904000Y-42622000D02*
X124904000Y-42622000D01*
X132814000Y-45542000D02*
X132814000Y-46812000D01*
X118904000Y-33222000D02*
X118904000Y-32462000D01*
X124904000Y-45622000D02*
X118904000Y-45622000D01*
X127961071Y-35762000D02*
X127564000Y-35762000D01*
X118904000Y-43382000D02*
X118904000Y-42622000D01*
X124904000Y-31512000D02*
X124904000Y-46872000D01*
X127564000Y-39192000D02*
X124904000Y-39192000D01*
X127564000Y-36652000D02*
X124904000Y-36652000D01*
X127961071Y-37542000D02*
X127564000Y-37542000D01*
X130501071Y-33222000D02*
X130046929Y-33222000D01*
X118904000Y-40082000D02*
X124904000Y-40082000D01*
X127564000Y-41732000D02*
X124904000Y-41732000D01*
X118904000Y-38302000D02*
X118904000Y-37542000D01*
X124904000Y-33222000D02*
X118904000Y-33222000D01*
X127961071Y-33222000D02*
X127564000Y-33222000D01*
X124904000Y-43382000D02*
X118904000Y-43382000D01*
X127564000Y-44272000D02*
X124904000Y-44272000D01*
X130501071Y-43382000D02*
X130046929Y-43382000D01*
X118904000Y-35002000D02*
X124904000Y-35002000D01*
X124904000Y-40842000D02*
X118904000Y-40842000D01*
X124904000Y-45742000D02*
X118904000Y-45742000D01*
X130501071Y-38302000D02*
X130046929Y-38302000D01*
X124904000Y-35762000D02*
X118904000Y-35762000D01*
X130501071Y-35762000D02*
X130046929Y-35762000D01*
X127961071Y-45922000D02*
X127564000Y-45922000D01*
X118904000Y-32462000D02*
X124904000Y-32462000D01*
X124904000Y-45262000D02*
X118904000Y-45262000D01*
X127961071Y-35002000D02*
X127564000Y-35002000D01*
X127564000Y-46872000D02*
X127564000Y-31512000D01*
X127961071Y-38302000D02*
X127564000Y-38302000D01*
X127564000Y-34112000D02*
X124904000Y-34112000D01*
X132814000Y-46812000D02*
X131544000Y-46812000D01*
X130501071Y-37542000D02*
X130046929Y-37542000D01*
X130501071Y-32462000D02*
X130046929Y-32462000D01*
X124904000Y-45922000D02*
X118904000Y-45922000D01*
X127961071Y-45162000D02*
X127564000Y-45162000D01*
X124904000Y-46872000D02*
X127564000Y-46872000D01*
X127961071Y-42622000D02*
X127564000Y-42622000D01*
X124904000Y-45502000D02*
X118904000Y-45502000D01*
X130501071Y-42622000D02*
X130046929Y-42622000D01*
X127961071Y-32462000D02*
X127564000Y-32462000D01*
X124904000Y-45862000D02*
X118904000Y-45862000D01*
X127961071Y-40842000D02*
X127564000Y-40842000D01*
X124904000Y-45382000D02*
X118904000Y-45382000D01*
X127961071Y-43382000D02*
X127564000Y-43382000D01*
X118904000Y-45922000D02*
X118904000Y-45162000D01*
X118904000Y-40842000D02*
X118904000Y-40082000D01*
X130434000Y-45922000D02*
X130046929Y-45922000D01*
X130501071Y-40842000D02*
X130046929Y-40842000D01*
X127564000Y-31512000D02*
X124904000Y-31512000D01*
X124904000Y-38302000D02*
X118904000Y-38302000D01*
X118904000Y-37542000D02*
X124904000Y-37542000D01*
X118904000Y-45162000D02*
X124904000Y-45162000D01*
X130501071Y-40082000D02*
X130046929Y-40082000D01*
X127961071Y-40082000D02*
X127564000Y-40082000D01*
D13*
%TO.C,U1*%
X162704000Y-29296000D02*
X162704000Y-49596000D01*
X147504000Y-29296000D02*
X162704000Y-29296000D01*
X147504000Y-49596000D02*
X147504000Y-29296000D01*
D14*
X163234000Y-48326000D02*
X163234000Y-48326000D01*
X163334000Y-48326000D02*
X163334000Y-48326000D01*
D13*
X162704000Y-49596000D02*
X147504000Y-49596000D01*
D14*
X163234000Y-48326000D02*
G75*
G03*
X163334000Y-48326000I50000J0D01*
G01*
X163334000Y-48326000D02*
G75*
G03*
X163234000Y-48326000I-50000J0D01*
G01*
D12*
%TO.C,J3*%
X136426500Y-91972000D02*
X135376500Y-91972000D01*
X135576500Y-92172000D02*
X138176500Y-92172000D01*
X144776500Y-92172000D02*
X144776500Y-94072000D01*
X135576500Y-106872000D02*
X135576500Y-92172000D01*
X144776500Y-98072000D02*
X144776500Y-106872000D01*
X142076500Y-92172000D02*
X144776500Y-92172000D01*
X135376500Y-93022000D02*
X135376500Y-91972000D01*
X144776500Y-106872000D02*
X135576500Y-106872000D01*
%TO.C,C1*%
X154812904Y-58948000D02*
X154812904Y-57445000D01*
X153611904Y-61992000D02*
X153611904Y-61028000D01*
X154451904Y-62443000D02*
X154451904Y-61028000D01*
X153771904Y-58948000D02*
X153771904Y-57866000D01*
X154852904Y-62538000D02*
X154852904Y-61028000D01*
X154331904Y-62402000D02*
X154331904Y-61028000D01*
X154692904Y-62508000D02*
X154692904Y-61028000D01*
X153931904Y-62212000D02*
X153931904Y-61028000D01*
X153571904Y-58948000D02*
X153571904Y-58017000D01*
X154331904Y-58948000D02*
X154331904Y-57574000D01*
X154171904Y-62336000D02*
X154171904Y-61028000D01*
X153451904Y-58948000D02*
X153451904Y-58124000D01*
X154932904Y-58948000D02*
X154932904Y-57427000D01*
X152811904Y-60903000D02*
X152811904Y-59073000D01*
X154732904Y-58948000D02*
X154732904Y-57460000D01*
X153131904Y-58948000D02*
X153131904Y-58488000D01*
X154411904Y-62430000D02*
X154411904Y-61028000D01*
X154892904Y-62544000D02*
X154892904Y-61028000D01*
X155252904Y-62568000D02*
X155252904Y-57408000D01*
X152691904Y-60506000D02*
X152691904Y-59470000D01*
X153651904Y-58948000D02*
X153651904Y-57953000D01*
X153611904Y-58948000D02*
X153611904Y-57984000D01*
X152891904Y-61086000D02*
X152891904Y-58890000D01*
X153171904Y-58948000D02*
X153171904Y-58434000D01*
X153251904Y-58948000D02*
X153251904Y-58335000D01*
X153691904Y-58948000D02*
X153691904Y-57923000D01*
X154011904Y-58948000D02*
X154011904Y-57720000D01*
X154411904Y-58948000D02*
X154411904Y-57546000D01*
X155172904Y-62567000D02*
X155172904Y-57409000D01*
X154972904Y-62553000D02*
X154972904Y-61028000D01*
X154251904Y-62370000D02*
X154251904Y-61028000D01*
X153491904Y-58948000D02*
X153491904Y-58087000D01*
X154531904Y-58948000D02*
X154531904Y-57508000D01*
X153371904Y-61773000D02*
X153371904Y-61028000D01*
X153131904Y-61488000D02*
X153131904Y-61028000D01*
X154011904Y-62256000D02*
X154011904Y-61028000D01*
X154652904Y-62499000D02*
X154652904Y-61028000D01*
X154091904Y-58948000D02*
X154091904Y-57678000D01*
X152971904Y-58948000D02*
X152971904Y-58737000D01*
X154852904Y-58948000D02*
X154852904Y-57438000D01*
X153811904Y-62137000D02*
X153811904Y-61028000D01*
X153531904Y-58948000D02*
X153531904Y-58051000D01*
X154291904Y-62386000D02*
X154291904Y-61028000D01*
X152851904Y-60999000D02*
X152851904Y-58977000D01*
X158057679Y-61463000D02*
X157557679Y-61463000D01*
X154091904Y-62298000D02*
X154091904Y-61028000D01*
X154732904Y-62516000D02*
X154732904Y-61028000D01*
X153051904Y-61371000D02*
X153051904Y-61028000D01*
X153891904Y-58948000D02*
X153891904Y-57788000D01*
X153211904Y-58948000D02*
X153211904Y-58383000D01*
X154371904Y-58948000D02*
X154371904Y-57560000D01*
X155052904Y-62561000D02*
X155052904Y-57415000D01*
X153371904Y-58948000D02*
X153371904Y-58203000D01*
X154171904Y-58948000D02*
X154171904Y-57640000D01*
X153211904Y-61593000D02*
X153211904Y-61028000D01*
X153411904Y-58948000D02*
X153411904Y-58162000D01*
X154291904Y-58948000D02*
X154291904Y-57590000D01*
X153651904Y-62023000D02*
X153651904Y-61028000D01*
X154131904Y-58948000D02*
X154131904Y-57659000D01*
X153051904Y-58948000D02*
X153051904Y-58605000D01*
X152971904Y-61239000D02*
X152971904Y-61028000D01*
X154251904Y-58948000D02*
X154251904Y-57606000D01*
X154211904Y-58948000D02*
X154211904Y-57623000D01*
X153331904Y-61731000D02*
X153331904Y-61028000D01*
X157807679Y-61713000D02*
X157807679Y-61213000D01*
X153251904Y-61641000D02*
X153251904Y-61028000D01*
X153691904Y-62053000D02*
X153691904Y-61028000D01*
X152931904Y-61166000D02*
X152931904Y-58810000D01*
X153171904Y-61542000D02*
X153171904Y-61028000D01*
X154772904Y-58948000D02*
X154772904Y-57452000D01*
X153291904Y-61687000D02*
X153291904Y-61028000D01*
X154652904Y-58948000D02*
X154652904Y-57477000D01*
X154491904Y-62456000D02*
X154491904Y-61028000D01*
X153451904Y-61852000D02*
X153451904Y-61028000D01*
X153931904Y-58948000D02*
X153931904Y-57764000D01*
X154211904Y-62353000D02*
X154211904Y-61028000D01*
X154892904Y-58948000D02*
X154892904Y-57432000D01*
X153731904Y-58948000D02*
X153731904Y-57893000D01*
X154612904Y-62489000D02*
X154612904Y-61028000D01*
X153411904Y-61814000D02*
X153411904Y-61028000D01*
X154451904Y-58948000D02*
X154451904Y-57533000D01*
X154531904Y-62468000D02*
X154531904Y-61028000D01*
X155012904Y-58948000D02*
X155012904Y-57419000D01*
X153571904Y-61959000D02*
X153571904Y-61028000D01*
X154772904Y-62524000D02*
X154772904Y-61028000D01*
X154051904Y-62278000D02*
X154051904Y-61028000D01*
X155132904Y-62566000D02*
X155132904Y-57410000D01*
X152651904Y-60272000D02*
X152651904Y-59704000D01*
X152731904Y-60665000D02*
X152731904Y-59311000D01*
X153851904Y-58948000D02*
X153851904Y-57813000D01*
X153971904Y-58948000D02*
X153971904Y-57741000D01*
X154972904Y-58948000D02*
X154972904Y-57423000D01*
X153011904Y-61307000D02*
X153011904Y-61028000D01*
X154051904Y-58948000D02*
X154051904Y-57698000D01*
X152771904Y-60793000D02*
X152771904Y-59183000D01*
X154612904Y-58948000D02*
X154612904Y-57487000D01*
X153291904Y-58948000D02*
X153291904Y-58289000D01*
X154572904Y-58948000D02*
X154572904Y-57497000D01*
X154371904Y-62416000D02*
X154371904Y-61028000D01*
X153091904Y-58948000D02*
X153091904Y-58545000D01*
X155092904Y-62564000D02*
X155092904Y-57412000D01*
X155212904Y-62568000D02*
X155212904Y-57408000D01*
X153491904Y-61889000D02*
X153491904Y-61028000D01*
X153771904Y-62110000D02*
X153771904Y-61028000D01*
X153531904Y-61925000D02*
X153531904Y-61028000D01*
X153971904Y-62235000D02*
X153971904Y-61028000D01*
X155012904Y-62557000D02*
X155012904Y-61028000D01*
X154131904Y-62317000D02*
X154131904Y-61028000D01*
X153011904Y-58948000D02*
X153011904Y-58669000D01*
X154932904Y-62549000D02*
X154932904Y-61028000D01*
X153811904Y-58948000D02*
X153811904Y-57839000D01*
X153731904Y-62083000D02*
X153731904Y-61028000D01*
X154692904Y-58948000D02*
X154692904Y-57468000D01*
X153091904Y-61431000D02*
X153091904Y-61028000D01*
X154491904Y-58948000D02*
X154491904Y-57520000D01*
X154572904Y-62479000D02*
X154572904Y-61028000D01*
X153851904Y-62163000D02*
X153851904Y-61028000D01*
X154812904Y-62531000D02*
X154812904Y-61028000D01*
X153331904Y-58948000D02*
X153331904Y-58245000D01*
X153891904Y-62188000D02*
X153891904Y-61028000D01*
X157872904Y-59988000D02*
G75*
G03*
X157872904Y-59988000I-2620000J0D01*
G01*
%TO.C,J3*%
X144776500Y-71688000D02*
X144776500Y-80488000D01*
X136426500Y-65588000D02*
X135376500Y-65588000D01*
X144776500Y-80488000D02*
X135576500Y-80488000D01*
X144776500Y-65788000D02*
X144776500Y-67688000D01*
X135576500Y-80488000D02*
X135576500Y-65788000D01*
X142076500Y-65788000D02*
X144776500Y-65788000D01*
X135376500Y-66638000D02*
X135376500Y-65588000D01*
X135576500Y-65788000D02*
X138176500Y-65788000D01*
%TO.C,J1*%
X127961071Y-72306000D02*
X127564000Y-72306000D01*
X127961071Y-66466000D02*
X127564000Y-66466000D01*
X127961071Y-71546000D02*
X127564000Y-71546000D01*
X118904000Y-64686000D02*
X118904000Y-63926000D01*
X118904000Y-72306000D02*
X118904000Y-71546000D01*
X130501071Y-69006000D02*
X130046929Y-69006000D01*
X124904000Y-71646000D02*
X118904000Y-71646000D01*
X127564000Y-57896000D02*
X124904000Y-57896000D01*
X130501071Y-64686000D02*
X130046929Y-64686000D01*
X124904000Y-73256000D02*
X127564000Y-73256000D01*
X124904000Y-72306000D02*
X118904000Y-72306000D01*
X127564000Y-68116000D02*
X124904000Y-68116000D01*
X130501071Y-62146000D02*
X130046929Y-62146000D01*
X130501071Y-66466000D02*
X130046929Y-66466000D01*
X124904000Y-71886000D02*
X118904000Y-71886000D01*
X130434000Y-72306000D02*
X130046929Y-72306000D01*
X127564000Y-70656000D02*
X124904000Y-70656000D01*
X127961071Y-64686000D02*
X127564000Y-64686000D01*
X130501071Y-58846000D02*
X130046929Y-58846000D01*
X124904000Y-72126000D02*
X118904000Y-72126000D01*
X118904000Y-62146000D02*
X118904000Y-61386000D01*
X118904000Y-63926000D02*
X124904000Y-63926000D01*
X127961071Y-63926000D02*
X127564000Y-63926000D01*
X118904000Y-61386000D02*
X124904000Y-61386000D01*
X127961071Y-62146000D02*
X127564000Y-62146000D01*
X124904000Y-71766000D02*
X118904000Y-71766000D01*
X127961071Y-58846000D02*
X127564000Y-58846000D01*
X130501071Y-69766000D02*
X130046929Y-69766000D01*
X130501071Y-59606000D02*
X130046929Y-59606000D01*
X124904000Y-62146000D02*
X118904000Y-62146000D01*
X127564000Y-65576000D02*
X124904000Y-65576000D01*
X124904000Y-64686000D02*
X118904000Y-64686000D01*
X130434000Y-71546000D02*
X130046929Y-71546000D01*
X118904000Y-71546000D02*
X124904000Y-71546000D01*
X130501071Y-63926000D02*
X130046929Y-63926000D01*
X127564000Y-73256000D02*
X127564000Y-57896000D01*
X127564000Y-63036000D02*
X124904000Y-63036000D01*
X124904000Y-72246000D02*
X118904000Y-72246000D01*
X118904000Y-69766000D02*
X118904000Y-69006000D01*
X124904000Y-57896000D02*
X124904000Y-73256000D01*
X127564000Y-60496000D02*
X124904000Y-60496000D01*
X118904000Y-59606000D02*
X118904000Y-58846000D01*
X127961071Y-61386000D02*
X127564000Y-61386000D01*
X124904000Y-59606000D02*
X118904000Y-59606000D01*
X127961071Y-69766000D02*
X127564000Y-69766000D01*
X132814000Y-73196000D02*
X131544000Y-73196000D01*
X127961071Y-67226000D02*
X127564000Y-67226000D01*
X130501071Y-67226000D02*
X130046929Y-67226000D01*
X127961071Y-69006000D02*
X127564000Y-69006000D01*
X118904000Y-69006000D02*
X124904000Y-69006000D01*
X118904000Y-66466000D02*
X124904000Y-66466000D01*
X118904000Y-67226000D02*
X118904000Y-66466000D01*
X118904000Y-58846000D02*
X124904000Y-58846000D01*
X132814000Y-71926000D02*
X132814000Y-73196000D01*
X130501071Y-61386000D02*
X130046929Y-61386000D01*
X124904000Y-72006000D02*
X118904000Y-72006000D01*
X127961071Y-59606000D02*
X127564000Y-59606000D01*
X124904000Y-67226000D02*
X118904000Y-67226000D01*
X124904000Y-69766000D02*
X118904000Y-69766000D01*
D13*
%TO.C,U1*%
X162704000Y-102364000D02*
X147504000Y-102364000D01*
X147504000Y-102364000D02*
X147504000Y-82064000D01*
X147504000Y-82064000D02*
X162704000Y-82064000D01*
D14*
X163234000Y-101094000D02*
X163234000Y-101094000D01*
D13*
X162704000Y-82064000D02*
X162704000Y-102364000D01*
D14*
X163334000Y-101094000D02*
X163334000Y-101094000D01*
X163334000Y-101094000D02*
G75*
G03*
X163234000Y-101094000I-50000J0D01*
G01*
X163234000Y-101094000D02*
G75*
G03*
X163334000Y-101094000I50000J0D01*
G01*
D12*
%TO.C,J2*%
X170598000Y-55416000D02*
X170598000Y-75736000D01*
X171868000Y-55416000D02*
X164248000Y-55416000D01*
X164248000Y-75736000D02*
X164248000Y-55416000D01*
X164248000Y-75736000D02*
X171868000Y-75736000D01*
X171868000Y-75736000D02*
X171868000Y-55416000D01*
%TO.C,C1*%
X153811904Y-88521000D02*
X153811904Y-87412000D01*
X152931904Y-87550000D02*
X152931904Y-85194000D01*
X154051904Y-88662000D02*
X154051904Y-87412000D01*
X154411904Y-85332000D02*
X154411904Y-83930000D01*
X154892904Y-88928000D02*
X154892904Y-87412000D01*
X152971904Y-87623000D02*
X152971904Y-87412000D01*
X153371904Y-88157000D02*
X153371904Y-87412000D01*
X153411904Y-88198000D02*
X153411904Y-87412000D01*
X154491904Y-88840000D02*
X154491904Y-87412000D01*
X152971904Y-85332000D02*
X152971904Y-85121000D01*
X153571904Y-85332000D02*
X153571904Y-84401000D01*
X153851904Y-85332000D02*
X153851904Y-84197000D01*
X153091904Y-87815000D02*
X153091904Y-87412000D01*
X154531904Y-88852000D02*
X154531904Y-87412000D01*
X157807679Y-88097000D02*
X157807679Y-87597000D01*
X154531904Y-85332000D02*
X154531904Y-83892000D01*
X154652904Y-88883000D02*
X154652904Y-87412000D01*
X153611904Y-85332000D02*
X153611904Y-84368000D01*
X154572904Y-85332000D02*
X154572904Y-83881000D01*
X153451904Y-85332000D02*
X153451904Y-84508000D01*
X152811904Y-87287000D02*
X152811904Y-85457000D01*
X153571904Y-88343000D02*
X153571904Y-87412000D01*
X154812904Y-85332000D02*
X154812904Y-83829000D01*
X153531904Y-88309000D02*
X153531904Y-87412000D01*
X153451904Y-88236000D02*
X153451904Y-87412000D01*
X152891904Y-87470000D02*
X152891904Y-85274000D01*
X154331904Y-88786000D02*
X154331904Y-87412000D01*
X153011904Y-85332000D02*
X153011904Y-85053000D01*
X154331904Y-85332000D02*
X154331904Y-83958000D01*
X154972904Y-85332000D02*
X154972904Y-83807000D01*
X154091904Y-88682000D02*
X154091904Y-87412000D01*
X153651904Y-88407000D02*
X153651904Y-87412000D01*
X153931904Y-85332000D02*
X153931904Y-84148000D01*
X155052904Y-88945000D02*
X155052904Y-83799000D01*
X158057679Y-87847000D02*
X157557679Y-87847000D01*
X154692904Y-88892000D02*
X154692904Y-87412000D01*
X155012904Y-85332000D02*
X155012904Y-83803000D01*
X154011904Y-88640000D02*
X154011904Y-87412000D01*
X153851904Y-88547000D02*
X153851904Y-87412000D01*
X153091904Y-85332000D02*
X153091904Y-84929000D01*
X154371904Y-85332000D02*
X154371904Y-83944000D01*
X153211904Y-87977000D02*
X153211904Y-87412000D01*
X153891904Y-85332000D02*
X153891904Y-84172000D01*
X152851904Y-87383000D02*
X152851904Y-85361000D01*
X153691904Y-85332000D02*
X153691904Y-84307000D01*
X154051904Y-85332000D02*
X154051904Y-84082000D01*
X154972904Y-88937000D02*
X154972904Y-87412000D01*
X154211904Y-85332000D02*
X154211904Y-84007000D01*
X153971904Y-88619000D02*
X153971904Y-87412000D01*
X154011904Y-85332000D02*
X154011904Y-84104000D01*
X154772904Y-85332000D02*
X154772904Y-83836000D01*
X154171904Y-88720000D02*
X154171904Y-87412000D01*
X153651904Y-85332000D02*
X153651904Y-84337000D01*
X153171904Y-85332000D02*
X153171904Y-84818000D01*
X153131904Y-87872000D02*
X153131904Y-87412000D01*
X154732904Y-88900000D02*
X154732904Y-87412000D01*
X154171904Y-85332000D02*
X154171904Y-84024000D01*
X152731904Y-87049000D02*
X152731904Y-85695000D01*
X154251904Y-85332000D02*
X154251904Y-83990000D01*
X154612904Y-88873000D02*
X154612904Y-87412000D01*
X154772904Y-88908000D02*
X154772904Y-87412000D01*
X153731904Y-88467000D02*
X153731904Y-87412000D01*
X153611904Y-88376000D02*
X153611904Y-87412000D01*
X154211904Y-88737000D02*
X154211904Y-87412000D01*
X153491904Y-85332000D02*
X153491904Y-84471000D01*
X154812904Y-88915000D02*
X154812904Y-87412000D01*
X153691904Y-88437000D02*
X153691904Y-87412000D01*
X153771904Y-85332000D02*
X153771904Y-84250000D01*
X154491904Y-85332000D02*
X154491904Y-83904000D01*
X153971904Y-85332000D02*
X153971904Y-84125000D01*
X154932904Y-85332000D02*
X154932904Y-83811000D01*
X153531904Y-85332000D02*
X153531904Y-84435000D01*
X154852904Y-85332000D02*
X154852904Y-83822000D01*
X153491904Y-88273000D02*
X153491904Y-87412000D01*
X153731904Y-85332000D02*
X153731904Y-84277000D01*
X153811904Y-85332000D02*
X153811904Y-84223000D01*
X154692904Y-85332000D02*
X154692904Y-83852000D01*
X153891904Y-88572000D02*
X153891904Y-87412000D01*
X155012904Y-88941000D02*
X155012904Y-87412000D01*
X155172904Y-88951000D02*
X155172904Y-83793000D01*
X153251904Y-88025000D02*
X153251904Y-87412000D01*
X152691904Y-86890000D02*
X152691904Y-85854000D01*
X154451904Y-88827000D02*
X154451904Y-87412000D01*
X154091904Y-85332000D02*
X154091904Y-84062000D01*
X153291904Y-88071000D02*
X153291904Y-87412000D01*
X154892904Y-85332000D02*
X154892904Y-83816000D01*
X153051904Y-87755000D02*
X153051904Y-87412000D01*
X154932904Y-88933000D02*
X154932904Y-87412000D01*
X154291904Y-85332000D02*
X154291904Y-83974000D01*
X154572904Y-88863000D02*
X154572904Y-87412000D01*
X153771904Y-88494000D02*
X153771904Y-87412000D01*
X152651904Y-86656000D02*
X152651904Y-86088000D01*
X152771904Y-87177000D02*
X152771904Y-85567000D01*
X154451904Y-85332000D02*
X154451904Y-83917000D01*
X154291904Y-88770000D02*
X154291904Y-87412000D01*
X153411904Y-85332000D02*
X153411904Y-84546000D01*
X155092904Y-88948000D02*
X155092904Y-83796000D01*
X153331904Y-85332000D02*
X153331904Y-84629000D01*
X154652904Y-85332000D02*
X154652904Y-83861000D01*
X153371904Y-85332000D02*
X153371904Y-84587000D01*
X153051904Y-85332000D02*
X153051904Y-84989000D01*
X154612904Y-85332000D02*
X154612904Y-83871000D01*
X155132904Y-88950000D02*
X155132904Y-83794000D01*
X154131904Y-88701000D02*
X154131904Y-87412000D01*
X153211904Y-85332000D02*
X153211904Y-84767000D01*
X153331904Y-88115000D02*
X153331904Y-87412000D01*
X153931904Y-88596000D02*
X153931904Y-87412000D01*
X154732904Y-85332000D02*
X154732904Y-83844000D01*
X153251904Y-85332000D02*
X153251904Y-84719000D01*
X153131904Y-85332000D02*
X153131904Y-84872000D01*
X153291904Y-85332000D02*
X153291904Y-84673000D01*
X153171904Y-87926000D02*
X153171904Y-87412000D01*
X154411904Y-88814000D02*
X154411904Y-87412000D01*
X153011904Y-87691000D02*
X153011904Y-87412000D01*
X154852904Y-88922000D02*
X154852904Y-87412000D01*
X155212904Y-88952000D02*
X155212904Y-83792000D01*
X154251904Y-88754000D02*
X154251904Y-87412000D01*
X155252904Y-88952000D02*
X155252904Y-83792000D01*
X154131904Y-85332000D02*
X154131904Y-84043000D01*
X154371904Y-88800000D02*
X154371904Y-87412000D01*
X157872904Y-86372000D02*
G75*
G03*
X157872904Y-86372000I-2620000J0D01*
G01*
%TO.C,J3*%
X144776500Y-39404000D02*
X144776500Y-41304000D01*
X136426500Y-39204000D02*
X135376500Y-39204000D01*
X135376500Y-40254000D02*
X135376500Y-39204000D01*
X144776500Y-45304000D02*
X144776500Y-54104000D01*
X135576500Y-39404000D02*
X138176500Y-39404000D01*
X135576500Y-54104000D02*
X135576500Y-39404000D01*
X142076500Y-39404000D02*
X144776500Y-39404000D01*
X144776500Y-54104000D02*
X135576500Y-54104000D01*
%TO.C,C1*%
X153211904Y-35209000D02*
X153211904Y-34644000D01*
X153731904Y-32564000D02*
X153731904Y-31509000D01*
X153451904Y-32564000D02*
X153451904Y-31740000D01*
X153211904Y-32564000D02*
X153211904Y-31999000D01*
X153571904Y-32564000D02*
X153571904Y-31633000D01*
X152891904Y-34702000D02*
X152891904Y-32506000D01*
X153331904Y-35347000D02*
X153331904Y-34644000D01*
X153611904Y-35608000D02*
X153611904Y-34644000D01*
X154291904Y-36002000D02*
X154291904Y-34644000D01*
X154451904Y-32564000D02*
X154451904Y-31149000D01*
X153491904Y-32564000D02*
X153491904Y-31703000D01*
X153691904Y-32564000D02*
X153691904Y-31539000D01*
X152811904Y-34519000D02*
X152811904Y-32689000D01*
X154572904Y-32564000D02*
X154572904Y-31113000D01*
X154411904Y-32564000D02*
X154411904Y-31162000D01*
X153011904Y-32564000D02*
X153011904Y-32285000D01*
X155132904Y-36182000D02*
X155132904Y-31026000D01*
X153131904Y-35104000D02*
X153131904Y-34644000D01*
X154371904Y-36032000D02*
X154371904Y-34644000D01*
X152971904Y-34855000D02*
X152971904Y-34644000D01*
X153971904Y-32564000D02*
X153971904Y-31357000D01*
X154531904Y-32564000D02*
X154531904Y-31124000D01*
X153611904Y-32564000D02*
X153611904Y-31600000D01*
X153891904Y-32564000D02*
X153891904Y-31404000D01*
X154812904Y-36147000D02*
X154812904Y-34644000D01*
X153571904Y-35575000D02*
X153571904Y-34644000D01*
X152931904Y-34782000D02*
X152931904Y-32426000D01*
X153531904Y-32564000D02*
X153531904Y-31667000D01*
X153531904Y-35541000D02*
X153531904Y-34644000D01*
X154892904Y-36160000D02*
X154892904Y-34644000D01*
X152691904Y-34122000D02*
X152691904Y-33086000D01*
X154652904Y-36115000D02*
X154652904Y-34644000D01*
X153091904Y-32564000D02*
X153091904Y-32161000D01*
X153331904Y-32564000D02*
X153331904Y-31861000D01*
X153411904Y-35430000D02*
X153411904Y-34644000D01*
X153931904Y-32564000D02*
X153931904Y-31380000D01*
X153411904Y-32564000D02*
X153411904Y-31778000D01*
X154211904Y-32564000D02*
X154211904Y-31239000D01*
X154171904Y-32564000D02*
X154171904Y-31256000D01*
X153251904Y-32564000D02*
X153251904Y-31951000D01*
X155172904Y-36183000D02*
X155172904Y-31025000D01*
X154131904Y-32564000D02*
X154131904Y-31275000D01*
X154612904Y-36105000D02*
X154612904Y-34644000D01*
X153931904Y-35828000D02*
X153931904Y-34644000D01*
X153051904Y-32564000D02*
X153051904Y-32221000D01*
X154732904Y-36132000D02*
X154732904Y-34644000D01*
X153371904Y-35389000D02*
X153371904Y-34644000D01*
X154531904Y-36084000D02*
X154531904Y-34644000D01*
X153291904Y-35303000D02*
X153291904Y-34644000D01*
X154171904Y-35952000D02*
X154171904Y-34644000D01*
X154852904Y-32564000D02*
X154852904Y-31054000D01*
X153091904Y-35047000D02*
X153091904Y-34644000D01*
X154772904Y-32564000D02*
X154772904Y-31068000D01*
X152731904Y-34281000D02*
X152731904Y-32927000D01*
X153811904Y-32564000D02*
X153811904Y-31455000D01*
X153171904Y-35158000D02*
X153171904Y-34644000D01*
X154572904Y-36095000D02*
X154572904Y-34644000D01*
X154331904Y-32564000D02*
X154331904Y-31190000D01*
X154932904Y-32564000D02*
X154932904Y-31043000D01*
X153171904Y-32564000D02*
X153171904Y-32050000D01*
X152651904Y-33888000D02*
X152651904Y-33320000D01*
X153891904Y-35804000D02*
X153891904Y-34644000D01*
X153771904Y-35726000D02*
X153771904Y-34644000D01*
X153971904Y-35851000D02*
X153971904Y-34644000D01*
X154091904Y-35914000D02*
X154091904Y-34644000D01*
X154892904Y-32564000D02*
X154892904Y-31048000D01*
X154091904Y-32564000D02*
X154091904Y-31294000D01*
X154291904Y-32564000D02*
X154291904Y-31206000D01*
X153691904Y-35669000D02*
X153691904Y-34644000D01*
X155252904Y-36184000D02*
X155252904Y-31024000D01*
X153651904Y-32564000D02*
X153651904Y-31569000D01*
X154692904Y-32564000D02*
X154692904Y-31084000D01*
X153011904Y-34923000D02*
X153011904Y-34644000D01*
X153851904Y-32564000D02*
X153851904Y-31429000D01*
X153251904Y-35257000D02*
X153251904Y-34644000D01*
X154131904Y-35933000D02*
X154131904Y-34644000D01*
X155052904Y-36177000D02*
X155052904Y-31031000D01*
X158057679Y-35079000D02*
X157557679Y-35079000D01*
X153651904Y-35639000D02*
X153651904Y-34644000D01*
X154972904Y-36169000D02*
X154972904Y-34644000D01*
X154652904Y-32564000D02*
X154652904Y-31093000D01*
X154011904Y-35872000D02*
X154011904Y-34644000D01*
X154972904Y-32564000D02*
X154972904Y-31039000D01*
X154612904Y-32564000D02*
X154612904Y-31103000D01*
X155012904Y-32564000D02*
X155012904Y-31035000D01*
X154411904Y-36046000D02*
X154411904Y-34644000D01*
X154852904Y-36154000D02*
X154852904Y-34644000D01*
X153491904Y-35505000D02*
X153491904Y-34644000D01*
X154772904Y-36140000D02*
X154772904Y-34644000D01*
X155012904Y-36173000D02*
X155012904Y-34644000D01*
X153131904Y-32564000D02*
X153131904Y-32104000D01*
X153851904Y-35779000D02*
X153851904Y-34644000D01*
X154251904Y-35986000D02*
X154251904Y-34644000D01*
X152851904Y-34615000D02*
X152851904Y-32593000D01*
X154732904Y-32564000D02*
X154732904Y-31076000D01*
X157807679Y-35329000D02*
X157807679Y-34829000D01*
X154692904Y-36124000D02*
X154692904Y-34644000D01*
X153811904Y-35753000D02*
X153811904Y-34644000D01*
X153771904Y-32564000D02*
X153771904Y-31482000D01*
X154451904Y-36059000D02*
X154451904Y-34644000D01*
X154812904Y-32564000D02*
X154812904Y-31061000D01*
X152771904Y-34409000D02*
X152771904Y-32799000D01*
X154371904Y-32564000D02*
X154371904Y-31176000D01*
X154331904Y-36018000D02*
X154331904Y-34644000D01*
X154491904Y-32564000D02*
X154491904Y-31136000D01*
X153291904Y-32564000D02*
X153291904Y-31905000D01*
X152971904Y-32564000D02*
X152971904Y-32353000D01*
X153451904Y-35468000D02*
X153451904Y-34644000D01*
X155092904Y-36180000D02*
X155092904Y-31028000D01*
X154051904Y-35894000D02*
X154051904Y-34644000D01*
X154051904Y-32564000D02*
X154051904Y-31314000D01*
X154932904Y-36165000D02*
X154932904Y-34644000D01*
X154251904Y-32564000D02*
X154251904Y-31222000D01*
X153731904Y-35699000D02*
X153731904Y-34644000D01*
X155212904Y-36184000D02*
X155212904Y-31024000D01*
X153051904Y-34987000D02*
X153051904Y-34644000D01*
X154211904Y-35969000D02*
X154211904Y-34644000D01*
X154011904Y-32564000D02*
X154011904Y-31336000D01*
X153371904Y-32564000D02*
X153371904Y-31819000D01*
X154491904Y-36072000D02*
X154491904Y-34644000D01*
X157872904Y-33604000D02*
G75*
G03*
X157872904Y-33604000I-2620000J0D01*
G01*
%TO.C,J4*%
X145452000Y-53384000D02*
X135292000Y-53384000D01*
X135292000Y-53384000D02*
X135292000Y-61004000D01*
X135292000Y-54654000D02*
X145452000Y-54654000D01*
X135292000Y-61004000D02*
X145452000Y-61004000D01*
X145452000Y-61004000D02*
X145452000Y-53384000D01*
D14*
%TO.C,U1*%
X163334000Y-74710000D02*
X163334000Y-74710000D01*
X163234000Y-74710000D02*
X163234000Y-74710000D01*
D13*
X147504000Y-75980000D02*
X147504000Y-55680000D01*
X147504000Y-55680000D02*
X162704000Y-55680000D01*
X162704000Y-75980000D02*
X147504000Y-75980000D01*
X162704000Y-55680000D02*
X162704000Y-75980000D01*
D14*
X163234000Y-74710000D02*
G75*
G03*
X163334000Y-74710000I50000J0D01*
G01*
X163334000Y-74710000D02*
G75*
G03*
X163234000Y-74710000I-50000J0D01*
G01*
D12*
%TO.C,J4*%
X145452000Y-34620000D02*
X145452000Y-27000000D01*
X145452000Y-27000000D02*
X135292000Y-27000000D01*
X135292000Y-34620000D02*
X145452000Y-34620000D01*
X135292000Y-28270000D02*
X145452000Y-28270000D01*
X135292000Y-27000000D02*
X135292000Y-34620000D01*
X135292000Y-79768000D02*
X135292000Y-87388000D01*
X145452000Y-79768000D02*
X135292000Y-79768000D01*
X135292000Y-87388000D02*
X145452000Y-87388000D01*
X145452000Y-87388000D02*
X145452000Y-79768000D01*
X135292000Y-81038000D02*
X145452000Y-81038000D01*
%TO.C,J2*%
X171868000Y-81800000D02*
X164248000Y-81800000D01*
X164248000Y-102120000D02*
X164248000Y-81800000D01*
X164248000Y-102120000D02*
X171868000Y-102120000D01*
X171868000Y-102120000D02*
X171868000Y-81800000D01*
X170598000Y-81800000D02*
X170598000Y-102120000D01*
X170598000Y-29032000D02*
X170598000Y-49352000D01*
X171868000Y-49352000D02*
X171868000Y-29032000D01*
X164248000Y-49352000D02*
X164248000Y-29032000D01*
X171868000Y-29032000D02*
X164248000Y-29032000D01*
X164248000Y-49352000D02*
X171868000Y-49352000D01*
%TO.C,J1*%
X130501071Y-95390000D02*
X130046929Y-95390000D01*
X118904000Y-95390000D02*
X124904000Y-95390000D01*
X118904000Y-87770000D02*
X124904000Y-87770000D01*
X118904000Y-91070000D02*
X118904000Y-90310000D01*
X130501071Y-92850000D02*
X130046929Y-92850000D01*
X130501071Y-93610000D02*
X130046929Y-93610000D01*
X127961071Y-87770000D02*
X127564000Y-87770000D01*
X127564000Y-84280000D02*
X124904000Y-84280000D01*
X130501071Y-96150000D02*
X130046929Y-96150000D01*
X127961071Y-93610000D02*
X127564000Y-93610000D01*
X124904000Y-99640000D02*
X127564000Y-99640000D01*
X118904000Y-88530000D02*
X118904000Y-87770000D01*
X127961071Y-85990000D02*
X127564000Y-85990000D01*
X130501071Y-85230000D02*
X130046929Y-85230000D01*
X130501071Y-91070000D02*
X130046929Y-91070000D01*
X127961071Y-98690000D02*
X127564000Y-98690000D01*
X127961071Y-88530000D02*
X127564000Y-88530000D01*
X118904000Y-96150000D02*
X118904000Y-95390000D01*
X130501071Y-90310000D02*
X130046929Y-90310000D01*
X127961071Y-95390000D02*
X127564000Y-95390000D01*
X124904000Y-98390000D02*
X118904000Y-98390000D01*
X118904000Y-85990000D02*
X118904000Y-85230000D01*
X118904000Y-98690000D02*
X118904000Y-97930000D01*
X127961071Y-96150000D02*
X127564000Y-96150000D01*
X127564000Y-97040000D02*
X124904000Y-97040000D01*
X124904000Y-98630000D02*
X118904000Y-98630000D01*
X124904000Y-85990000D02*
X118904000Y-85990000D01*
X127961071Y-91070000D02*
X127564000Y-91070000D01*
X132814000Y-98310000D02*
X132814000Y-99580000D01*
X124904000Y-98150000D02*
X118904000Y-98150000D01*
X124904000Y-98690000D02*
X118904000Y-98690000D01*
X130434000Y-98690000D02*
X130046929Y-98690000D01*
X130501071Y-87770000D02*
X130046929Y-87770000D01*
X124904000Y-98270000D02*
X118904000Y-98270000D01*
X118904000Y-97930000D02*
X124904000Y-97930000D01*
X127564000Y-99640000D02*
X127564000Y-84280000D01*
X127961071Y-90310000D02*
X127564000Y-90310000D01*
X130434000Y-97930000D02*
X130046929Y-97930000D01*
X118904000Y-92850000D02*
X124904000Y-92850000D01*
X127564000Y-89420000D02*
X124904000Y-89420000D01*
X130501071Y-85990000D02*
X130046929Y-85990000D01*
X127961071Y-92850000D02*
X127564000Y-92850000D01*
X124904000Y-98510000D02*
X118904000Y-98510000D01*
X124904000Y-91070000D02*
X118904000Y-91070000D01*
X127564000Y-94500000D02*
X124904000Y-94500000D01*
X124904000Y-93610000D02*
X118904000Y-93610000D01*
X124904000Y-84280000D02*
X124904000Y-99640000D01*
X124904000Y-98030000D02*
X118904000Y-98030000D01*
X127564000Y-91960000D02*
X124904000Y-91960000D01*
X118904000Y-85230000D02*
X124904000Y-85230000D01*
X127961071Y-97930000D02*
X127564000Y-97930000D01*
X132814000Y-99580000D02*
X131544000Y-99580000D01*
X118904000Y-90310000D02*
X124904000Y-90310000D01*
X124904000Y-88530000D02*
X118904000Y-88530000D01*
X127564000Y-86880000D02*
X124904000Y-86880000D01*
X118904000Y-93610000D02*
X118904000Y-92850000D01*
X127961071Y-85230000D02*
X127564000Y-85230000D01*
X130501071Y-88530000D02*
X130046929Y-88530000D01*
X124904000Y-96150000D02*
X118904000Y-96150000D01*
%TD*%
M02*
