M48
; DRILL file {KiCad (6.0.11)} date Wed Feb 22 21:13:09 2023
; FORMAT={-:-/ absolute / metric / decimal}
; #@! TF.CreationDate,2023-02-22T21:13:09+09:00
; #@! TF.GenerationSoftware,Kicad,Pcbnew,(6.0.11)
; #@! TF.FileFunction,NonPlated,1,2,NPTH
FMAT,2
METRIC
; #@! TA.AperFunction,NonPlated,NPTH,ComponentDrill
T1C0.500
%
G90
G05
T1
X118.628Y-27.0
X118.628Y-104.152
X119.503Y-27.0
X119.503Y-104.152
X120.378Y-27.0
X120.378Y-104.152
X121.253Y-27.0
X121.253Y-104.152
X122.128Y-27.0
X122.128Y-104.152
X124.628Y-36.567
X124.628Y-37.442
X124.628Y-38.317
X124.628Y-39.192
X124.628Y-40.067
X124.628Y-40.942
X124.628Y-41.817
X124.628Y-62.951
X124.628Y-63.826
X124.628Y-64.701
X124.628Y-65.576
X124.628Y-66.451
X124.628Y-67.326
X124.628Y-68.201
X124.628Y-89.335
X124.628Y-90.21
X124.628Y-91.085
X124.628Y-91.96
X124.628Y-92.835
X124.628Y-93.71
X124.628Y-94.585
X124.878Y-20.75
X124.878Y-21.625
X124.878Y-22.5
X124.878Y-23.375
X124.878Y-24.25
X124.878Y-106.902
X124.878Y-107.777
X124.878Y-108.652
X124.878Y-109.527
X124.878Y-110.402
X145.875Y-26.75
X145.875Y-51.634
X145.875Y-53.134
X145.875Y-78.018
X145.875Y-79.518
X145.875Y-104.402
X146.75Y-26.75
X146.75Y-51.634
X146.75Y-53.134
X146.75Y-78.018
X146.75Y-79.518
X146.75Y-104.402
X147.625Y-26.75
X147.625Y-51.634
X147.625Y-53.134
X147.625Y-78.018
X147.625Y-79.518
X147.625Y-104.402
X148.5Y-26.75
X148.5Y-51.634
X148.5Y-53.134
X148.5Y-78.018
X148.5Y-79.518
X148.5Y-104.402
X149.375Y-26.75
X149.375Y-51.634
X149.375Y-53.134
X149.375Y-78.018
X149.375Y-79.518
X149.375Y-104.402
X150.25Y-26.75
X150.25Y-51.634
X150.25Y-53.134
X150.25Y-78.018
X150.25Y-79.518
X150.25Y-104.402
X151.125Y-26.75
X151.125Y-51.634
X151.125Y-53.134
X151.125Y-78.018
X151.125Y-79.518
X151.125Y-104.402
X172.122Y-20.75
X172.122Y-21.625
X172.122Y-22.5
X172.122Y-23.375
X172.122Y-24.25
X172.122Y-106.902
X172.122Y-107.777
X172.122Y-108.652
X172.122Y-109.527
X172.122Y-110.402
X172.372Y-36.567
X172.372Y-37.442
X172.372Y-38.317
X172.372Y-39.192
X172.372Y-40.067
X172.372Y-40.942
X172.372Y-41.817
X172.372Y-62.951
X172.372Y-63.826
X172.372Y-64.701
X172.372Y-65.576
X172.372Y-66.451
X172.372Y-67.326
X172.372Y-68.201
X172.372Y-89.335
X172.372Y-90.21
X172.372Y-91.085
X172.372Y-91.96
X172.372Y-92.835
X172.372Y-93.71
X172.372Y-94.585
X174.872Y-27.0
X174.872Y-104.152
X175.747Y-27.0
X175.747Y-104.152
X176.622Y-27.0
X176.622Y-104.152
X177.497Y-27.0
X177.497Y-104.152
X178.372Y-27.0
X178.372Y-104.152
T0
M30
